<svg width="18" height="18" viewBox="0 0 18 18" fill="none" xmlns="http://www.w3.org/2000/svg">
<g clip-path="url(#clip0_8_1788)">
<path d="M14.25 0.75H3.75C2.0955 0.75 0.75 2.0955 0.75 3.75V14.25C0.75 15.9045 2.0955 17.25 3.75 17.25H14.25C15.9045 17.25 17.25 15.9045 17.25 14.25V3.75C17.25 2.0955 15.9045 0.75 14.25 0.75ZM3.75 2.25H14.25C15.0773 2.25 15.75 2.92275 15.75 3.75V8.25H13.9635L11.9213 4.16475C11.6663 3.65625 10.8337 3.65625 10.5787 4.16475L6.75 11.823L5.17125 8.66475C5.10895 8.54008 5.01314 8.43523 4.89458 8.36197C4.77601 8.28871 4.63937 8.24994 4.5 8.25H2.25V3.75C2.25 2.92275 2.92275 2.25 3.75 2.25ZM14.25 15.75H3.75C2.92275 15.75 2.25 15.0773 2.25 14.25V9.75H4.0365L6.07875 13.8353C6.14095 13.9601 6.23672 14.065 6.35529 14.1384C6.47387 14.2118 6.61055 14.2507 6.75 14.2507C6.88945 14.2507 7.02613 14.2118 7.14471 14.1384C7.26328 14.065 7.35905 13.9601 7.42125 13.8353L11.25 6.177L12.8287 9.33525C12.891 9.45992 12.9869 9.56477 13.1054 9.63803C13.224 9.71129 13.3606 9.75006 13.5 9.75H15.75V14.25C15.75 15.0773 15.0773 15.75 14.25 15.75Z" fill="white"/>
</g>
<defs>
<clipPath id="clip0_8_1788">
<rect width="18" height="18" fill="white"/>
</clipPath>
</defs>
</svg>
