<svg width="135" height="41" viewBox="0 0 135 41" fill="none" xmlns="http://www.w3.org/2000/svg">
<path d="M134.744 36.745C134.744 38.9603 133.019 40.7546 130.886 40.7546H4.60819C2.47553 40.7546 0.744446 38.9603 0.744446 36.745V4.76951C0.744446 2.55531 2.47553 0.754639 4.60819 0.754639H130.885C133.019 0.754639 134.743 2.55531 134.743 4.76951L134.744 36.745Z" fill="black"/>
<path d="M30.2325 20.5302C30.2034 17.1808 32.8814 15.5513 33.0038 15.4754C31.4872 13.186 29.1364 12.8732 28.3103 12.8483C26.3359 12.6332 24.4208 14.0714 23.415 14.0714C22.3892 14.0714 20.8404 12.8691 19.1712 12.9044C17.0232 12.9387 15.0137 14.2263 13.9116 16.2257C11.6371 20.3026 13.3334 26.2936 15.5126 29.589C16.6026 31.2029 17.8764 33.0049 19.5436 32.9415C21.1747 32.8719 21.784 31.8649 23.7523 31.8649C25.7026 31.8649 26.2747 32.9415 27.9751 32.901C29.7256 32.8719 30.8277 31.2798 31.8796 29.6514C33.1393 27.8016 33.6452 25.9798 33.6653 25.8863C33.6241 25.8717 30.2656 24.5447 30.2325 20.5302Z" fill="white"/>
<path d="M27.0205 10.6805C27.8978 9.54461 28.498 7.9993 28.3314 6.43112C27.0616 6.48932 25.4737 7.34044 24.5593 8.45136C23.7503 9.4303 23.0276 11.0348 23.2143 12.5438C24.6406 12.6539 26.1051 11.7987 27.0205 10.6805Z" fill="white"/>
<path d="M53.8376 32.7097H51.5581L50.3094 28.6474H45.9692L44.7798 32.7097H42.5605L46.8605 18.8799H49.5164L53.8376 32.7097ZM49.933 26.9431L48.8038 23.3319C48.6843 22.9629 48.4605 22.0941 48.1303 20.7265H48.0901C47.9586 21.3147 47.7468 22.1835 47.4557 23.3319L46.3466 26.9431H49.933Z" fill="white"/>
<path d="M64.8958 27.601C64.8958 29.297 64.4532 30.6376 63.5678 31.6217C62.7749 32.4978 61.7902 32.9353 60.6148 32.9353C59.3461 32.9353 58.4347 32.4635 57.8796 31.5199H57.8395V36.7731H55.6995V26.0203C55.6995 24.9541 55.6724 23.8598 55.6202 22.7374H57.5022L57.6217 24.3181H57.6618C58.3755 23.1271 59.4585 22.5327 60.9119 22.5327C62.0482 22.5327 62.9967 22.9972 63.7555 23.9273C64.5164 24.8585 64.8958 26.0827 64.8958 27.601ZM62.7157 27.682C62.7157 26.7114 62.5049 25.9112 62.0813 25.2814C61.6186 24.6247 60.9973 24.2963 60.2183 24.2963C59.6904 24.2963 59.2106 24.4792 58.782 24.8398C58.3524 25.2035 58.0713 25.6784 57.9398 26.2666C57.8736 26.541 57.8405 26.7654 57.8405 26.9421V28.6049C57.8405 29.3302 58.0553 29.9423 58.4849 30.4422C58.9145 30.942 59.4726 31.1915 60.1591 31.1915C60.9651 31.1915 61.5925 30.8693 62.0412 30.2271C62.4908 29.5838 62.7157 28.7358 62.7157 27.682Z" fill="white"/>
<path d="M75.9741 27.601C75.9741 29.297 75.5315 30.6376 74.6452 31.6217C73.8532 32.4978 72.8686 32.9353 71.6932 32.9353C70.4244 32.9353 69.513 32.4635 68.959 31.5199H68.9188V36.7731H66.7788V26.0203C66.7788 24.9541 66.7517 23.8598 66.6995 22.7374H68.5816L68.701 24.3181H68.7412C69.4538 23.1271 70.5369 22.5327 71.9913 22.5327C73.1265 22.5327 74.0751 22.9972 74.8359 23.9273C75.5937 24.8585 75.9741 26.0827 75.9741 27.601ZM73.794 27.682C73.794 26.7114 73.5822 25.9112 73.1586 25.2814C72.6959 24.6247 72.0766 24.2963 71.2967 24.2963C70.7677 24.2963 70.2889 24.4792 69.8593 24.8398C69.4297 25.2035 69.1497 25.6784 69.0182 26.2666C68.9529 26.541 68.9188 26.7654 68.9188 26.9421V28.6049C68.9188 29.3302 69.1336 29.9423 69.5612 30.4422C69.9908 30.941 70.5489 31.1915 71.2375 31.1915C72.0435 31.1915 72.6708 30.8693 73.1195 30.2271C73.5692 29.5838 73.794 28.7358 73.794 27.682Z" fill="white"/>
<path d="M88.3604 28.8314C88.3604 30.0078 87.9659 30.9649 87.1739 31.7038C86.3037 32.5113 85.0922 32.9145 83.5354 32.9145C82.098 32.9145 80.9457 32.6277 80.0734 32.053L80.5693 30.2063C81.5088 30.7945 82.5396 31.0896 83.6628 31.0896C84.4688 31.0896 85.0962 30.9005 85.5469 30.5243C85.9955 30.1481 86.2194 29.6431 86.2194 29.0133C86.2194 28.4521 86.0347 27.9793 85.6643 27.5958C85.2959 27.2123 84.6806 26.8559 83.8214 26.5264C81.4827 25.6234 80.3143 24.3004 80.3143 22.5608C80.3143 21.4239 80.7239 20.4917 81.5439 19.7663C82.361 19.0399 83.451 18.6772 84.8141 18.6772C86.0297 18.6772 87.0394 18.8965 87.8454 19.334L87.3104 21.1402C86.5576 20.7162 85.7065 20.5042 84.7539 20.5042C84.0011 20.5042 83.4129 20.6964 82.9913 21.0789C82.635 21.4208 82.4563 21.8375 82.4563 22.3311C82.4563 22.8778 82.6601 23.3298 83.0696 23.6852C83.426 24.0136 84.0734 24.369 85.0129 24.7525C86.1622 25.2316 87.0063 25.7917 87.5493 26.434C88.0904 27.0741 88.3604 27.8753 88.3604 28.8314Z" fill="white"/>
<path d="M95.4358 24.4002H93.077V29.2419C93.077 30.4734 93.4925 31.0886 94.3256 31.0886C94.7081 31.0886 95.0252 31.0543 95.2762 30.9857L95.3354 32.6682C94.9138 32.8314 94.3588 32.9135 93.6712 32.9135C92.826 32.9135 92.1656 32.6464 91.6888 32.1133C91.214 31.5791 90.9751 30.6833 90.9751 29.4248V24.3981H89.5699V22.7354H90.9751V20.9095L93.077 20.2527V22.7354H95.4358V24.4002Z" fill="white"/>
<path d="M106.078 27.6415C106.078 29.1744 105.655 30.4329 104.81 31.417C103.923 32.4302 102.747 32.9353 101.281 32.9353C99.8673 32.9353 98.7421 32.45 97.903 31.4794C97.0638 30.5087 96.6443 29.2835 96.6443 27.8068C96.6443 26.2614 97.0759 24.9957 97.9421 24.0115C98.8063 23.0264 99.9727 22.5338 101.439 22.5338C102.852 22.5338 103.99 23.0191 104.848 23.9908C105.669 24.9333 106.078 26.1503 106.078 27.6415ZM103.858 27.7132C103.858 26.7935 103.668 26.0048 103.284 25.3469C102.835 24.5509 102.194 24.1539 101.363 24.1539C100.503 24.1539 99.8492 24.5519 99.4005 25.3469C99.0161 26.0058 98.8264 26.807 98.8264 27.7548C98.8264 28.6745 99.0161 29.4633 99.4005 30.1201C99.8633 30.9161 100.51 31.3131 101.344 31.3131C102.161 31.3131 102.802 30.9078 103.265 30.0993C103.659 29.429 103.858 28.6319 103.858 27.7132Z" fill="white"/>
<path d="M113.034 24.686C112.823 24.6454 112.597 24.6247 112.36 24.6247C111.607 24.6247 111.025 24.9188 110.615 25.508C110.259 26.0276 110.08 26.6844 110.08 27.4773V32.7098H107.941L107.961 25.878C107.961 24.7286 107.934 23.6821 107.881 22.7385H109.745L109.823 24.6465H109.883C110.109 23.9907 110.465 23.4628 110.953 23.0669C111.429 22.7104 111.944 22.5327 112.499 22.5327C112.697 22.5327 112.876 22.5473 113.034 22.5732V24.686Z" fill="white"/>
<path d="M122.605 27.2518C122.605 27.6488 122.58 27.9834 122.527 28.2567H116.107C116.132 29.2419 116.442 29.9953 117.038 30.5149C117.579 30.9795 118.279 31.2122 119.138 31.2122C120.089 31.2122 120.956 31.0553 121.736 30.7404L122.071 32.2785C121.16 32.69 120.084 32.8947 118.842 32.8947C117.349 32.8947 116.176 32.4396 115.323 31.5302C114.472 30.6209 114.045 29.3998 114.045 27.868C114.045 26.3643 114.442 25.112 115.236 24.1134C116.067 23.0471 117.19 22.514 118.603 22.514C119.991 22.514 121.042 23.0471 121.756 24.1134C122.321 24.9603 122.605 26.0079 122.605 27.2518ZM120.565 26.6771C120.579 26.0203 120.439 25.4529 120.149 24.9738C119.779 24.3576 119.209 24.05 118.444 24.05C117.744 24.05 117.175 24.3503 116.74 24.953C116.384 25.4321 116.172 26.0068 116.107 26.6761H120.565V26.6771Z" fill="white"/>
<path d="M49.2254 10.3718C49.2254 11.595 48.871 12.5157 48.1634 13.1341C47.5079 13.7046 46.5765 13.9904 45.37 13.9904C44.7717 13.9904 44.2598 13.9633 43.8312 13.9093V7.22611C44.3903 7.13258 44.9926 7.08478 45.643 7.08478C46.7923 7.08478 47.6585 7.34354 48.2427 7.86107C48.8971 8.44615 49.2254 9.28272 49.2254 10.3718ZM48.1162 10.402C48.1162 9.60903 47.9135 9.00109 47.5079 8.57709C47.1024 8.15413 46.5102 7.94213 45.7303 7.94213C45.3991 7.94213 45.117 7.96499 44.8831 8.0128V13.0935C45.0126 13.1143 45.2495 13.1237 45.5938 13.1237C46.3988 13.1237 47.0201 12.8919 47.4578 12.4284C47.8954 11.9649 48.1162 11.2894 48.1162 10.402Z" fill="white"/>
<path d="M55.1063 11.4401C55.1063 12.1936 54.8985 12.8108 54.483 13.2951C54.0473 13.7929 53.4702 14.0413 52.7495 14.0413C52.0549 14.0413 51.5018 13.8033 51.0893 13.3253C50.6778 12.8483 50.472 12.2466 50.472 11.5212C50.472 10.7626 50.6838 10.1401 51.1094 9.65683C51.535 9.17359 52.1071 8.93146 52.8278 8.93146C53.5224 8.93146 54.0805 9.16944 54.503 9.64644C54.9045 10.1099 55.1063 10.7085 55.1063 11.4401ZM54.0152 11.4755C54.0152 11.0234 53.9209 10.6358 53.7332 10.3126C53.5123 9.92183 53.1982 9.72646 52.7897 9.72646C52.3671 9.72646 52.0459 9.92183 51.825 10.3126C51.6363 10.6358 51.543 11.0296 51.543 11.4952C51.543 11.9473 51.6373 12.3349 51.825 12.6581C52.0529 13.0488 52.3701 13.2442 52.7796 13.2442C53.1811 13.2442 53.4963 13.0457 53.7231 12.6477C53.9179 12.3183 54.0152 11.9275 54.0152 11.4755Z" fill="white"/>
<path d="M62.9917 9.03122L61.5112 13.9301H60.5476L59.9343 11.8028C59.7787 11.2718 59.6522 10.7438 59.5539 10.2201H59.5348C59.4435 10.7584 59.317 11.2853 59.1544 11.8028L58.503 13.9301H57.5283L56.1361 9.03122H57.2172L57.7521 11.3601C57.8816 11.9109 57.988 12.4357 58.0734 12.9324H58.0924C58.1707 12.523 58.3002 12.0013 58.4829 11.3705L59.1544 9.03226H60.0116L60.655 11.3206C60.8106 11.8787 60.937 12.4159 61.0344 12.9335H61.0635C61.1348 12.4295 61.2422 11.8922 61.3847 11.3206L61.9588 9.03226H62.9917V9.03122Z" fill="white"/>
<path d="M68.4451 13.9301H67.3931V11.1242C67.3931 10.2596 67.0759 9.82727 66.4396 9.82727C66.1274 9.82727 65.8755 9.94574 65.6797 10.1837C65.486 10.4217 65.3877 10.7023 65.3877 11.0234V13.9291H64.3357V10.4311C64.3357 10.0008 64.3227 9.53421 64.2976 9.02915H65.222L65.2712 9.79505H65.3003C65.4228 9.55707 65.6055 9.36066 65.8454 9.20374C66.1304 9.02084 66.4496 8.92834 66.7989 8.92834C67.2406 8.92834 67.6079 9.07591 67.9 9.37209C68.2634 9.73478 68.4451 10.2762 68.4451 10.9953V13.9301Z" fill="white"/>
<path d="M71.3459 13.9301H70.295V6.78342H71.3459V13.9301Z" fill="white"/>
<path d="M77.539 11.4401C77.539 12.1936 77.3312 12.8108 76.9157 13.2951C76.4801 13.7929 75.9019 14.0413 75.1822 14.0413C74.4866 14.0413 73.9335 13.8033 73.522 13.3253C73.1105 12.8483 72.9047 12.2466 72.9047 11.5212C72.9047 10.7626 73.1165 10.1401 73.5421 9.65683C73.9677 9.17359 74.5398 8.93146 75.2595 8.93146C75.9551 8.93146 76.5122 9.16944 76.9357 9.64644C77.3372 10.1099 77.539 10.7085 77.539 11.4401ZM76.4469 11.4755C76.4469 11.0234 76.3526 10.6358 76.1649 10.3126C75.9451 9.92183 75.6299 9.72646 75.2224 9.72646C74.7988 9.72646 74.4776 9.92183 74.2578 10.3126C74.0691 10.6358 73.9757 11.0296 73.9757 11.4952C73.9757 11.9473 74.0701 12.3349 74.2578 12.6581C74.4856 13.0488 74.8028 13.2442 75.2123 13.2442C75.6138 13.2442 75.928 13.0457 76.1548 12.6477C76.3506 12.3183 76.4469 11.9275 76.4469 11.4755Z" fill="white"/>
<path d="M82.63 13.9301H81.6855L81.6072 13.3658H81.5781C81.2549 13.8158 80.7941 14.0413 80.1959 14.0413C79.7492 14.0413 79.3879 13.8927 79.1159 13.5975C78.869 13.3294 78.7455 12.9958 78.7455 12.5999C78.7455 12.0013 78.9864 11.5451 79.4712 11.2292C79.955 10.9132 80.6356 10.7584 81.5118 10.7657V10.6742C81.5118 10.0289 81.1846 9.70671 80.5292 9.70671C80.0624 9.70671 79.6509 9.8283 79.2956 10.0694L79.0818 9.35442C79.5214 9.07279 80.0644 8.93146 80.7048 8.93146C81.9414 8.93146 82.5617 9.60695 82.5617 10.9579V12.762C82.5617 13.2515 82.5848 13.6412 82.63 13.9301ZM81.5379 12.2466V11.491C80.3776 11.4703 79.7974 11.7997 79.7974 12.4783C79.7974 12.7339 79.8637 12.9252 79.9992 13.053C80.1347 13.1808 80.3073 13.2442 80.5131 13.2442C80.744 13.2442 80.9598 13.1683 81.1565 13.0177C81.3542 12.8659 81.4757 12.6737 81.5208 12.4378C81.5319 12.3848 81.5379 12.3203 81.5379 12.2466Z" fill="white"/>
<path d="M88.6073 13.9301H87.6738L87.6246 13.1434H87.5955C87.2974 13.742 86.7895 14.0413 86.0759 14.0413C85.5057 14.0413 85.031 13.8096 84.6546 13.3461C84.2782 12.8826 84.0905 12.2809 84.0905 11.542C84.0905 10.7491 84.2942 10.1068 84.7037 9.61632C85.1002 9.15906 85.586 8.93044 86.1642 8.93044C86.7996 8.93044 87.2442 9.15179 87.4972 9.59553H87.5172V6.78342H88.5702V12.6103C88.5702 13.0873 88.5822 13.5269 88.6073 13.9301ZM87.5172 11.8641V11.0473C87.5172 10.906 87.5072 10.7917 87.4881 10.7044C87.4289 10.4425 87.3014 10.2222 87.1077 10.0445C86.912 9.86677 86.6761 9.7774 86.4041 9.7774C86.0116 9.7774 85.7045 9.93848 85.4786 10.2617C85.2548 10.5849 85.1414 10.9974 85.1414 11.5015C85.1414 11.9857 85.2488 12.3786 85.4646 12.681C85.6924 13.0031 85.9996 13.1642 86.384 13.1642C86.7293 13.1642 87.0053 13.0301 87.2151 12.761C87.4179 12.5126 87.5172 12.2133 87.5172 11.8641Z" fill="white"/>
<path d="M97.6039 11.4401C97.6039 12.1936 97.3961 12.8108 96.9805 13.2951C96.5449 13.7929 95.9688 14.0413 95.2471 14.0413C94.5535 14.0413 94.0004 13.8033 93.5869 13.3253C93.1753 12.8483 92.9696 12.2466 92.9696 11.5212C92.9696 10.7626 93.1814 10.1401 93.607 9.65683C94.0325 9.17359 94.6047 8.93146 95.3264 8.93146C96.02 8.93146 96.579 9.16944 97.0006 9.64644C97.4021 10.1099 97.6039 10.7085 97.6039 11.4401ZM96.5138 11.4755C96.5138 11.0234 96.4194 10.6358 96.2317 10.3126C96.0099 9.92183 95.6968 9.72646 95.2872 9.72646C94.8657 9.72646 94.5444 9.92183 94.3226 10.3126C94.1339 10.6358 94.0406 11.0296 94.0406 11.4952C94.0406 11.9473 94.1349 12.3349 94.3226 12.6581C94.5505 13.0488 94.8677 13.2442 95.2772 13.2442C95.6787 13.2442 95.9949 13.0457 96.2217 12.6477C96.4154 12.3183 96.5138 11.9275 96.5138 11.4755Z" fill="white"/>
<path d="M103.26 13.9301H102.209V11.1242C102.209 10.2596 101.892 9.82727 101.254 9.82727C100.942 9.82727 100.69 9.94574 100.496 10.1837C100.301 10.4217 100.204 10.7023 100.204 11.0234V13.9291H99.1506V10.4311C99.1506 10.0008 99.1386 9.53421 99.1135 9.02915H100.037L100.086 9.79505H100.115C100.239 9.55707 100.421 9.36066 100.66 9.20374C100.946 9.02084 101.265 8.92834 101.615 8.92834C102.055 8.92834 102.423 9.07591 102.715 9.37209C103.079 9.73478 103.26 10.2762 103.26 10.9953V13.9301Z" fill="white"/>
<path d="M110.339 9.84704H109.181V12.2268C109.181 12.8317 109.387 13.1341 109.794 13.1341C109.983 13.1341 110.14 13.1175 110.263 13.0832L110.29 13.9093C110.082 13.9904 109.809 14.0309 109.473 14.0309C109.058 14.0309 108.734 13.9 108.501 13.6381C108.266 13.3762 108.149 12.9356 108.149 12.3173V9.84704H107.458V9.03126H108.149V8.13338L109.18 7.81122V9.03022H110.338V9.84704H110.339Z" fill="white"/>
<path d="M115.908 13.9301H114.855V11.145C114.855 10.2669 114.538 9.82728 113.903 9.82728C113.415 9.82728 113.082 10.0819 112.899 10.5911C112.868 10.6981 112.85 10.8291 112.85 10.9829V13.9291H111.799V6.78342H112.85V9.73583H112.87C113.201 9.19855 113.676 8.93044 114.291 8.93044C114.727 8.93044 115.087 9.078 115.373 9.37418C115.73 9.7431 115.908 10.2918 115.908 11.0172V13.9301Z" fill="white"/>
<path d="M121.653 11.2489C121.653 11.4443 121.639 11.6085 121.613 11.7425H118.459C118.473 12.2268 118.623 12.5957 118.915 12.8514C119.182 13.08 119.527 13.1943 119.948 13.1943C120.415 13.1943 120.841 13.1174 121.224 12.9626L121.389 13.7191C120.94 13.9207 120.412 14.0215 119.801 14.0215C119.068 14.0215 118.491 13.7981 118.073 13.3512C117.654 12.9044 117.446 12.3047 117.446 11.5523C117.446 10.8135 117.64 10.1982 118.03 9.70774C118.438 9.18397 118.989 8.92209 119.684 8.92209C120.365 8.92209 120.882 9.18397 121.231 9.70774C121.513 10.1234 121.653 10.6378 121.653 11.2489ZM120.649 10.9673C120.657 10.6441 120.588 10.3656 120.445 10.1307C120.262 9.82828 119.984 9.67656 119.608 9.67656C119.265 9.67656 118.985 9.82413 118.771 10.1203C118.596 10.3562 118.493 10.6378 118.459 10.9673H120.649Z" fill="white"/>
</svg>
