<svg width="12" height="12" viewBox="0 0 12 12" fill="none" xmlns="http://www.w3.org/2000/svg">
<path d="M5.99999 8.75098C5.86739 8.75096 5.74024 8.69826 5.64649 8.60448L1.14649 4.10248C1.05541 4.00818 1.00501 3.88188 1.00615 3.75078C1.00729 3.61968 1.05988 3.49428 1.15258 3.40157C1.24528 3.30887 1.37069 3.25629 1.50179 3.25515C1.63289 3.25401 1.75919 3.3044 1.85349 3.39548L5.99999 7.54348L10.1465 3.39548C10.2408 3.3044 10.3671 3.25401 10.4982 3.25515C10.6293 3.25629 10.7547 3.30887 10.8474 3.40157C10.9401 3.49428 10.9927 3.61968 10.9938 3.75078C10.995 3.88188 10.9446 4.00818 10.8535 4.10248L6.35349 8.60448C6.25974 8.69826 6.13259 8.75096 5.99999 8.75098Z" fill="white"/>
</svg>
