<?xml version="1.0" ?>
<!-- Uploaded to: SVG Repo, www.svgrepo.com, Generator: SVG Repo Mixer Tools -->
<svg width="800px" height="800px" viewBox="0 0 256 256" data-name="Layer 1" id="Layer_1" xmlns="http://www.w3.org/2000/svg">
<defs>
<style>.cls-1{fill:#84d0f7;}.cls-2{fill:#2d2d2d;}.cls-3{fill:#050505;}.cls-3,.cls-7{opacity:0.2;}.cls-4{fill:#aa392d;}.cls-5{fill:#7c211a;}.cls-6{fill:#843f2c;}.cls-8{opacity:0.3;}</style>
</defs>
<g data-name="Female 1" id="Female_1">
<path class="cls-1" d="M249.55,128.15a120.73,120.73,0,0,1-28.37,77.92,122.48,122.48,0,0,1-9.24,9.82H45.39a101.77,101.77,0,0,1-9-8.89l-.82-1c-7-8.29-29.51-37.68-28.35-77.89C8.86,72.45,55.69,7,128.4,7A121.15,121.15,0,0,1,249.55,128.15Z" id="Wallpaper"/>
<circle class="cls-2" cx="128.19" cy="41.77" id="Chignon" r="22.19"/>
<circle class="cls-3" cx="128.19" cy="41.77" id="ChignonShadow" r="22.19"/>
<path class="cls-4" d="M221.17,206.06a119.22,119.22,0,0,1-9.23,9.84,121.16,121.16,0,0,1-83.54,33.4c-25.8,0-47.35-9-63.11-18.66A144,144,0,0,1,45.38,215.9a102,102,0,0,1-9-8.9c-.24-.26-.52-.59-.82-1a111.15,111.15,0,0,1,25.14-18.86,130.58,130.58,0,0,1,27.52-11.34q20,17.66,39.93,35.3,20.19-17.65,40.32-35.3c.29.08.57.15.85.24a1.23,1.23,0,0,0,.29.08,133.19,133.19,0,0,1,26.34,11A113.29,113.29,0,0,1,221.17,206.06Z" id="Sweater"/>
<path class="cls-5" d="M168.5,175.84q-20.15,17.66-40.32,35.3-20-17.65-39.93-35.3a26.43,26.43,0,0,1,6.26-1.64q16.81,14.43,33.65,28.87,17-14.46,34.08-28.87A28,28,0,0,1,168.5,175.84Z" id="Neckband"/>
<path class="cls-6" d="M162.24,174.2q-17,14.43-34.08,28.87-16.81-14.46-33.65-28.87c1.44-.35,2.94-.68,4.47-1s2.79-.55,4.14-.77a37.5,37.5,0,0,0,1.66-5.14c.22-1,.39-1.88.55-2.75a41,41,0,0,0,4.31,3.07,47.28,47.28,0,0,0,4.45,2.45,36.43,36.43,0,0,0,13.46,3.22,37,37,0,0,0,15-3.51,51.24,51.24,0,0,0,4.9-2.79c1.53-1,2.8-2,3.76-2.75.28,1.29.63,2.64,1.06,4.06s.9,2.86,1.4,4.14c1.18.2,2.38.42,3.62.68C159,173.44,160.63,173.81,162.24,174.2Z" id="Neck"/>
<path class="cls-7" d="M169.64,176.16c-.83.94-1.68,1.86-2.56,2.73a56.32,56.32,0,0,1-6.23,5.43,42.62,42.62,0,0,1-9.45,5.34,33.72,33.72,0,0,1-6.56,1.94,29.57,29.57,0,0,1-6,.53,32,32,0,0,1-11.53-2.4l-.66-.27a41.37,41.37,0,0,1-8.24-4.71A59.86,59.86,0,0,1,105.78,172c-.56-.77-1.11-1.55-1.65-2.36.11-.35.21-.7.3-1.07a34.94,34.94,0,0,0,.9-4c.58.48,1.17.94,1.78,1.37a42.25,42.25,0,0,0,5.09,3.19c.17.08.34.19.52.28s.41.22.63.33l.74.35.44.19.37.18.46.19.43.18a1,1,0,0,0,.22.08,4,4,0,0,0,.53.22c.21.09.43.16.67.24a0,0,0,0,1,0,0c.26.09.48.18.72.24l.16.07c.17,0,.34.11.52.15a6.12,6.12,0,0,0,.76.24l.35.09.7.2a29.57,29.57,0,0,0,4.51.78,3.73,3.73,0,0,0,.48,0,1.09,1.09,0,0,0,.31,0c.22,0,.41,0,.63,0l.55,0h1.17a31,31,0,0,0,9.66-1.59l.07,0,.37-.13c.65-.2,1.29-.46,1.94-.7l.18-.09c.28-.1.54-.24.82-.34a1.12,1.12,0,0,1,.22-.09,44,44,0,0,0,8.2-4.84c.55-.42,1.09-.83,1.62-1.25.3,1.36.67,2.82,1.13,4.34s.87,2.66,1.33,3.86l1.09.2,1.09.2,1.07.19c.26.07.52.11.81.18a3.46,3.46,0,0,1,.52.11c1.35.28,2.7.56,4,.89,2.12.5,4.19,1.05,6.26,1.64Z" id="NeckShadow"/>
<path class="cls-6" d="M186.09,120.25c-.15,5.16-3.45,10.39-7.13,12.31a7.55,7.55,0,0,1-1.57.6l-.11,0a4.85,4.85,0,0,1-2,.06,5.13,5.13,0,0,1-2-.87l-.28-.21a7.2,7.2,0,0,1-1.11-1.1c-2.66-3.2-3.75-9.22-2-14a14.66,14.66,0,0,1,3.21-5,8.86,8.86,0,0,1,4.4-2.57,5.81,5.81,0,0,1,2.35,0C184.21,110.31,186.23,115.94,186.09,120.25Z" id="RightEar"/>
<path class="cls-8" d="M186.1,120.25c-.17,5.17-3.47,10.38-7.15,12.32a8.36,8.36,0,0,1-1.55.59l-.13,0a5.55,5.55,0,0,1-2,.07,5.3,5.3,0,0,1-2-.88l-.28-.21a7.67,7.67,0,0,1-1.11-1.1c-2.66-3.2-3.75-9.22-2-14a14.58,14.58,0,0,1,3.21-5,9.91,9.91,0,0,1,3.12-2.18,6.54,6.54,0,0,1,1.28-.4,5.86,5.86,0,0,1,2.36,0,2.25,2.25,0,0,1,.35.09C184.31,110.61,186.23,116.06,186.1,120.25Z" id="RightEarShadow"/>
<path class="cls-6" d="M84.88,131.06a7.47,7.47,0,0,1-1.4,1.31,5,5,0,0,1-2,.87,4.81,4.81,0,0,1-2-.06l-.12,0a7,7,0,0,1-1.56-.61c-3.69-1.91-7-7.14-7.14-12.3-.13-4.31,1.89-9.94,6.27-10.82,2.49-.5,4.88.71,6.75,2.6a14.24,14.24,0,0,1,3.21,5C88.62,121.84,87.53,127.86,84.88,131.06Z" id="LeftHear"/>
<path class="cls-6" d="M177.46,109.45l-.06,1.22a78.81,78.81,0,0,1-4.47,21.49c-4.62,13-12.41,24.55-21.76,32.07-.53.42-1.07.83-1.62,1.25a44,44,0,0,1-8.2,4.84,1.12,1.12,0,0,0-.22.09c-.28.1-.54.24-.82.34l-.18.09c-.65.24-1.29.5-1.94.7l-.37.13-.07,0a31,31,0,0,1-9.66,1.59h-1.17l-.55,0c-.22,0-.41,0-.63,0a1.09,1.09,0,0,1-.31,0,3.73,3.73,0,0,1-.48,0,29.57,29.57,0,0,1-4.51-.78l-.7-.2-.35-.09a6.12,6.12,0,0,1-.76-.24c-.18,0-.35-.11-.52-.15l-.16-.07c-.24-.06-.46-.15-.72-.24a0,0,0,0,0,0,0c-.24-.08-.46-.15-.67-.24a4,4,0,0,1-.53-.22,1,1,0,0,1-.22-.08l-.43-.18-.46-.19-.37-.18-.44-.19-.74-.35c-.22-.11-.44-.22-.63-.33s-.35-.2-.52-.28a42.25,42.25,0,0,1-5.09-3.19c-.61-.43-1.2-.89-1.78-1.37a46.67,46.67,0,0,1-4.41-3.95,53.62,53.62,0,0,1-4.12-4.49v0a77.81,77.81,0,0,1-13.56-24.91A79.9,79.9,0,0,1,79.44,113c-.09-1-.15-2-.2-3.07a67.34,67.34,0,0,1,.33-10.82c.15-1.46.37-2.9.63-4.34a53.14,53.14,0,0,1,1.23-5.3A72.39,72.39,0,0,1,86.05,77c4.21-8.83,10.29-17.14,17.88-23.05,6.91-5.38,15.09-8.79,24.29-8.81,14.81-.06,27.07,8.64,35.64,20.35a71.18,71.18,0,0,1,8.57,15.39c.56,1.38,1.09,2.75,1.57,4.15a70,70,0,0,1,2.55,9.79c.24,1.39.46,2.81.61,4.23A68.32,68.32,0,0,1,177.46,109.45Z" id="Head"/>
<path class="cls-7" d="M162,112.64c-4.93-.13-12.73-4.3-17.07-7.24C132.19,96.76,122.31,80.32,115.18,80a6,6,0,0,0-2.24.33c-3.23,1.2-4.32,5.41-5.48,9.49-1.41,5-2.35,8.28-3,10.38-.07-5.74-.18-12,3.29-20.85,1-2.64,2.33-5.35,4.95-6.3,1.27-.48,5.41-1.49,15.94,8.24a62,62,0,0,1,7.59,8.2c8.57,11.19,8.66,12.06,13,15.92C155.48,110.94,159.28,110.65,162,112.64Z" id="HairsShadow"/>
<path class="cls-2" d="M194,171c-.45,1.23-9.16.9-16.72-3.86-8.81-5.54-15.4-16.68-15.77-28.3-.37-12.24,6.37-17.12,2.57-23.79a7.82,7.82,0,0,0-2-2.4h0c-2.72-2-6.52-1.7-12.73-7.24-4.34-3.86-4.43-4.73-13-15.92a62,62,0,0,0-7.59-8.2C118.15,71.55,114,72.56,112.74,73c-2.62.95-3.9,3.66-4.95,6.3-3.47,8.87-3.36,15.11-3.29,20.85,0,4.88.06,9.39-2.18,14.85C97.54,126.59,89,126.92,88.53,137.17c-.28,5.76,2.36,7,2.21,14.52,0,2.53-.24,11.91-6.13,18.24-9.84,10.51-29.62,6.21-29.88,4s18.28-2,21.88-11.58c2.92-7.8-8-13.69-6.44-27,.79-6.81,3.88-7.35,6.44-15.75,3.75-12.43-1.27-17.1-.42-28.59,1.48-20.06,18.93-37.16,34.5-43.77a49.71,49.71,0,0,1,15.11-3.86c20.76-1.76,36.38,10.93,42.11,16.4,4.19,4,14.68,14,16.4,28.61a62.69,62.69,0,0,1-1,19.63c-2.77,15.09-7.65,16.77-8.68,28.94-.41,4.84-1.2,14.26,4.19,22.18C184.68,167.68,194.45,169.66,194,171Z" id="Hairs"/>
</g>
</svg>