<svg width="24" height="24" viewBox="0 0 24 24" fill="none" xmlns="http://www.w3.org/2000/svg">
<path d="M18.227 22.912C13.314 22.912 8.941 19.285 6.741 17.084C4.486 14.83 0.731004 10.291 0.921004 5.23096C0.953564 4.43158 1.27638 3.67147 1.829 3.09296C2.40763 2.47772 3.031 1.90616 3.694 1.38296C4.13269 1.04769 4.67707 0.880871 5.22828 0.912798C5.77948 0.944726 6.30096 1.17328 6.698 1.55696C8.33698 3.00387 9.59348 4.83297 10.356 6.88196C10.5523 7.52858 10.4839 8.22666 10.166 8.82296L9.711 9.67596C9.67927 9.73489 9.66068 9.80001 9.65654 9.86682C9.6524 9.93364 9.66279 10.0006 9.687 10.063C10.4554 11.9058 11.9208 13.3704 13.764 14.138C13.8262 14.1626 13.893 14.1732 13.9597 14.169C14.0264 14.1649 14.0914 14.1461 14.15 14.114L15.003 13.659C15.5989 13.341 16.2967 13.2727 16.943 13.469C18.9925 14.2312 20.8219 15.4877 22.269 17.127C22.652 17.5241 22.8802 18.0454 22.9121 18.5962C22.944 19.1471 22.7776 19.6912 22.443 20.13C21.9193 20.7928 21.3478 21.4165 20.733 21.996C20.1547 22.5492 19.3946 22.8728 18.595 22.906C18.4724 22.9102 18.3497 22.9122 18.227 22.912ZM5.083 2.91196C5.02288 2.91086 4.9641 2.92986 4.916 2.96596C4.33452 3.42648 3.78771 3.92918 3.28 4.46996C3.06233 4.69557 2.93435 4.99278 2.92 5.30596C2.759 9.60696 6.13 13.646 8.155 15.67C10.18 17.694 14.215 21.073 18.521 20.906C18.8339 20.8918 19.1309 20.7638 19.356 20.546C19.8966 20.0377 20.3993 19.4906 20.86 18.909C20.901 18.8458 20.9188 18.7703 20.9102 18.6955C20.9016 18.6207 20.8673 18.5512 20.813 18.499C19.5951 17.1213 18.0675 16.0523 16.356 15.38C16.2185 15.3401 16.0709 15.3559 15.945 15.424L15.091 15.879C14.7753 16.0485 14.4262 16.1467 14.0684 16.1667C13.7106 16.1868 13.3527 16.1281 13.02 15.995C11.8563 15.514 10.799 14.8082 9.90859 13.918C9.01816 13.0277 8.31215 11.9705 7.831 10.807C7.69801 10.4743 7.63939 10.1165 7.65925 9.75873C7.67912 9.40097 7.77699 9.05189 7.946 8.73596L8.402 7.88096C8.46957 7.75522 8.48501 7.60797 8.445 7.47096C7.77276 5.75933 6.70419 4.23153 5.327 3.01296C5.26125 2.94996 5.17406 2.91423 5.083 2.91296V2.91196Z" fill="white"/>
</svg>
