<svg width="96" height="96" viewBox="0 0 96 96" fill="none" xmlns="http://www.w3.org/2000/svg">
<g clip-path="url(#clip0_24_46)">
<path d="M48 0C21.532 0 0 21.533 0 48C0 74.467 21.532 96 48 96C74.468 96 96 74.468 96 48C96 21.532 74.468 0 48 0ZM48 94C22.636 94 2 73.364 2 48C2 22.636 22.636 2 48 2C73.364 2 94 22.636 94 48C94 73.364 73.364 94 48 94ZM60.227 40.716L52.97 46.223C52.48 46.593 51.804 46.598 51.309 46.228L45.936 42.197C45.5545 41.9114 45.118 41.7079 44.654 41.5993C44.19 41.4906 43.7086 41.4792 43.24 41.5657C42.7713 41.6522 42.3257 41.8348 41.9311 42.102C41.5364 42.3691 41.2014 42.715 40.947 43.118L34.191 53.836C33.538 54.863 34.806 56.025 35.773 55.289L43.03 49.782C43.2689 49.6012 43.5601 49.503 43.8597 49.5021C44.1592 49.5012 44.451 49.5977 44.691 49.777L50.064 53.808C50.4454 54.0936 50.8819 54.2972 51.3458 54.4059C51.8098 54.5146 52.2912 54.5261 52.7598 54.4397C53.2284 54.3533 53.6741 54.1708 54.0688 53.9038C54.4634 53.6367 54.7985 53.2909 55.053 52.888L61.809 42.169C62.462 41.142 61.194 39.98 60.227 40.716ZM48 25C35.042 25 25 34.492 25 47.31C25 54.016 27.749 59.81 32.224 63.813C32.599 64.151 32.826 64.619 32.844 65.123L32.969 69.214C32.9791 69.5149 33.0627 69.8088 33.2125 70.07C33.3624 70.3312 33.5738 70.5518 33.8285 70.7124C34.0832 70.8731 34.3733 70.969 34.6735 70.9918C34.9738 71.0145 35.275 70.9635 35.551 70.843L40.114 68.83C40.5003 68.6594 40.9334 68.6266 41.341 68.737C43.437 69.316 45.672 69.621 48 69.621C60.958 69.621 71 60.13 71 47.311C71 34.492 60.958 25 48 25ZM48 67.621C45.886 67.621 43.825 67.348 41.867 66.808C41.017 66.5759 40.1129 66.6437 39.307 67L34.961 68.917L34.843 65.05C34.8241 64.5321 34.7004 64.0235 34.4794 63.5547C34.2584 63.086 33.9446 62.667 33.557 62.323C29.33 58.54 27 53.209 27 47.31C27 35.73 36.028 27 48 27C59.972 27 69 35.73 69 47.31C69 58.89 59.972 67.621 48 67.621Z" fill="white"/>
</g>
<defs>
<clipPath id="clip0_24_46">
<rect width="96" height="96" fill="white"/>
</clipPath>
</defs>
</svg>
