<svg width="16" height="16" viewBox="0 0 16 16" fill="none" xmlns="http://www.w3.org/2000/svg">
<path d="M14 11.6679C13.9124 11.668 13.8257 11.6508 13.7448 11.6173C13.664 11.5838 13.5905 11.5346 13.5287 11.4726L7.99999 5.94194L2.47133 11.4726C2.40983 11.5363 2.33627 11.5871 2.25493 11.622C2.17359 11.657 2.08611 11.6753 1.99759 11.6761C1.90907 11.6769 1.82129 11.66 1.73936 11.6265C1.65743 11.593 1.58299 11.5435 1.5204 11.4809C1.4578 11.4183 1.4083 11.3438 1.37478 11.2619C1.34126 11.18 1.32439 11.0922 1.32516 11.0037C1.32593 10.9152 1.34432 10.8277 1.37926 10.7463C1.4142 10.665 1.46499 10.5914 1.52866 10.5299L7.52866 4.52728C7.65611 4.40698 7.82474 4.33997 7.99999 4.33997C8.17525 4.33997 8.34388 4.40698 8.47133 4.52728L14.4713 10.5299C14.5645 10.6232 14.628 10.742 14.6537 10.8713C14.6794 11.0006 14.6662 11.1346 14.6158 11.2564C14.5653 11.3782 14.4799 11.4823 14.3703 11.5555C14.2607 11.6288 14.1318 11.6679 14 11.6679Z" fill="white"/>
</svg>
