<svg width="16" height="16" viewBox="0 0 16 16" fill="none" xmlns="http://www.w3.org/2000/svg">
<g clip-path="url(#clip0_334_380)">
<path fill-rule="evenodd" clip-rule="evenodd" d="M12.6667 9.99996V3.33329C12.666 2.62627 12.3848 1.9484 11.8848 1.44845C11.3849 0.94851 10.707 0.667332 10 0.666626H3.33334C2.62631 0.667332 1.94844 0.94851 1.4485 1.44845C0.948556 1.9484 0.667378 2.62627 0.666672 3.33329V9.99996C0.667378 10.707 0.948556 11.3849 1.4485 11.8848C1.94844 12.3847 2.62631 12.6659 3.33334 12.6666H10C10.707 12.6659 11.3849 12.3847 11.8848 11.8848C12.3848 11.3849 12.666 10.707 12.6667 9.99996ZM2.00001 9.99996V3.33329C2.00036 2.97978 2.14095 2.64085 2.39092 2.39087C2.64089 2.1409 2.97982 2.00031 3.33334 1.99996H10C10.3535 2.00031 10.6925 2.1409 10.9424 2.39087C11.1924 2.64085 11.333 2.97978 11.3333 3.33329V9.99996C11.333 10.3535 11.1924 10.6924 10.9424 10.9424C10.6925 11.1924 10.3535 11.3329 10 11.3333H3.33334C2.97982 11.3329 2.64089 11.1924 2.39092 10.9424C2.14095 10.6924 2.00036 10.3535 2.00001 9.99996ZM14.5747 4.15129C14.5287 4.10347 14.4695 4.07045 14.4046 4.05642C14.3397 4.04239 14.2722 4.048 14.2105 4.07254C14.1488 4.09707 14.0959 4.13942 14.0584 4.19417C14.0209 4.24892 14.0006 4.3136 14 4.37996V10.0006C14 11.0615 13.5786 12.0789 12.8284 12.8291C12.0783 13.5792 11.0609 14.0006 10 14.0006H4.38667C4.32022 14.0011 4.2554 14.0213 4.20042 14.0586C4.14544 14.096 4.10277 14.1488 4.07779 14.2103C4.05282 14.2719 4.04666 14.3395 4.06011 14.4046C4.07356 14.4697 4.106 14.5293 4.15334 14.576C4.64543 15.0613 5.30884 15.3334 6.00001 15.3333H10C11.4145 15.3333 12.771 14.7714 13.7712 13.7712C14.7714 12.771 15.3333 11.4144 15.3333 9.99996V5.99996C15.3332 5.30799 15.0606 4.6439 14.5747 4.15129Z" fill="white"/>
</g>
<defs>
<clipPath id="clip0_334_380">
<rect width="16" height="16" fill="white"/>
</clipPath>
</defs>
</svg>
