<svg width="24" height="24" viewBox="0 0 24 24" fill="none" xmlns="http://www.w3.org/2000/svg">
<path d="M12.202 3.203H5.25C4.45435 3.203 3.69129 3.51907 3.12868 4.08168C2.56607 4.64429 2.25 5.40735 2.25 6.203V18.75C2.25 19.5457 2.56607 20.3087 3.12868 20.8713C3.69129 21.4339 4.45435 21.75 5.25 21.75H17.797C18.5927 21.75 19.3557 21.4339 19.9183 20.8713C20.4809 20.3087 20.797 19.5457 20.797 18.75V11.798" stroke="white" stroke-width="2" stroke-linecap="round" stroke-linejoin="round"/>
<path d="M10.002 17.2261H6.77399V13.9981L18.607 2.16506C18.7386 2.03347 18.8948 1.92909 19.0667 1.85787C19.2386 1.78665 19.4229 1.75 19.609 1.75C19.7951 1.75 19.9793 1.78665 20.1513 1.85787C20.3232 1.92909 20.4794 2.03347 20.611 2.16506L21.835 3.39006C21.9666 3.52164 22.071 3.67785 22.1422 3.84978C22.2134 4.0217 22.25 4.20597 22.25 4.39206C22.25 4.57815 22.2134 4.76242 22.1422 4.93434C22.071 5.10627 21.9666 5.26248 21.835 5.39406L10.002 17.2261Z" stroke="white" stroke-width="2" stroke-linecap="round" stroke-linejoin="round"/>
<path d="M16.848 3.92395L20.076 7.15295" stroke="white" stroke-width="2" stroke-linecap="round" stroke-linejoin="round"/>
</svg>
