<svg width="24" height="24" viewBox="0 0 24 24" fill="none" xmlns="http://www.w3.org/2000/svg">
<g clip-path="url(#clip0_24_58)">
<path d="M15.83 10.9969C15.5992 10.9969 15.3736 11.0654 15.1817 11.1936C14.9897 11.3218 14.8402 11.5041 14.7518 11.7173C14.6635 11.9306 14.6404 12.1652 14.6854 12.3916C14.7305 12.618 14.8416 12.8259 15.0048 12.9891C15.168 13.1523 15.376 13.2635 15.6023 13.3085C15.8287 13.3535 16.0634 13.3304 16.2766 13.2421C16.4898 13.1538 16.6721 13.0042 16.8003 12.8123C16.9286 12.6204 16.997 12.3947 16.997 12.1639C16.997 11.8544 16.8741 11.5576 16.6552 11.3387C16.4363 11.1199 16.1395 10.9969 15.83 10.9969ZM9.33 12.1639C9.33 11.9331 9.26154 11.7074 9.13326 11.5155C9.00498 11.3235 8.82267 11.174 8.60937 11.0857C8.39607 10.9974 8.16137 10.9743 7.93497 11.0194C7.70856 11.0645 7.50063 11.1758 7.33746 11.3391C7.17429 11.5024 7.06322 11.7104 7.01831 11.9369C6.97339 12.1633 6.99664 12.398 7.08512 12.6112C7.17361 12.8244 7.32334 13.0066 7.51538 13.1347C7.70743 13.2629 7.93315 13.3311 8.164 13.3309C8.47334 13.3307 8.76991 13.2076 8.98855 12.9888C9.20719 12.7699 9.33 12.4733 9.33 12.1639ZM14.493 15.4039C14.1748 15.7461 13.7896 16.0192 13.3613 16.2062C12.933 16.3931 12.4708 16.4899 12.0035 16.4906C11.5362 16.4912 11.0738 16.3957 10.645 16.21C10.2162 16.0242 9.83018 15.7522 9.511 15.4109C9.34445 15.2045 9.10269 15.0726 8.83892 15.0444C8.57515 15.0162 8.31098 15.0939 8.10451 15.2604C7.89803 15.427 7.76618 15.6687 7.73796 15.9325C7.70974 16.1963 7.78745 16.4605 7.95401 16.6669C8.46045 17.2403 9.083 17.6994 9.78037 18.0139C10.4777 18.3284 11.234 18.491 11.999 18.491C12.764 18.491 13.5203 18.3284 14.2176 18.0139C14.915 17.6994 15.5376 17.2403 16.044 16.6669C16.204 16.4606 16.2769 16.2 16.2473 15.9406C16.2177 15.6813 16.0878 15.4438 15.8854 15.2789C15.6831 15.114 15.4243 15.0348 15.1643 15.0582C14.9043 15.0815 14.6637 15.2056 14.494 15.4039H14.493ZM12 0.50293C9.72552 0.50293 7.50211 1.17739 5.61095 2.44103C3.71978 3.70467 2.2458 5.50072 1.37539 7.60207C0.504983 9.70342 0.277244 12.0157 0.720974 14.2465C1.1647 16.4773 2.25997 18.5264 3.86828 20.1347C5.47658 21.743 7.52568 22.8382 9.75647 23.282C11.9872 23.7257 14.2995 23.498 16.4009 22.6275C18.5022 21.7571 20.2983 20.2832 21.5619 18.392C22.8255 16.5008 23.5 14.2774 23.5 12.0029C23.4966 8.954 22.2839 6.03092 20.1279 3.875C17.972 1.71908 15.0489 0.50637 12 0.50293ZM12 21.5029C10.1211 21.5029 8.28435 20.9458 6.72209 19.9019C5.15982 18.858 3.94218 17.3743 3.22315 15.6384C2.50412 13.9025 2.31599 11.9924 2.68255 10.1496C3.0491 8.30675 3.95389 6.61401 5.28249 5.28542C6.61109 3.95682 8.30383 3.05203 10.1466 2.68547C11.9895 2.31891 13.8996 2.50704 15.6355 3.22607C17.3714 3.94511 18.8551 5.16275 19.899 6.72501C20.9428 8.28728 21.5 10.124 21.5 12.0029C21.4974 14.5217 20.4956 16.9365 18.7146 18.7175C16.9336 20.4985 14.5187 21.5003 12 21.5029Z" fill="white"/>
</g>
<defs>
<clipPath id="clip0_24_58">
<rect width="24" height="24" fill="white"/>
</clipPath>
</defs>
</svg>
