<svg width="16" height="16" viewBox="0 0 16 16" fill="none" xmlns="http://www.w3.org/2000/svg">
<g clip-path="url(#clip0_1_642)">
<rect width="16" height="16" fill="#375085"/>
<path d="M7.21094 6.66602H8.58203V5.96289C8.58203 5.17773 8.66406 4.5918 8.82812 4.20508C8.99805 3.81836 9.30566 3.50488 9.75098 3.26465C10.2021 3.01855 10.7705 2.89551 11.4561 2.89551C12.1592 2.89551 12.8477 3.00098 13.5215 3.21191L13.1875 4.93457C12.7949 4.84082 12.417 4.79395 12.0537 4.79395C11.6963 4.79395 11.4385 4.87891 11.2803 5.04883C11.1279 5.21289 11.0518 5.53223 11.0518 6.00684V6.66602H12.8975V8.6084H11.0518V16H8.58203V8.6084H7.21094V6.66602Z" fill="white"/>
</g>
<defs>
<clipPath id="clip0_1_642">
<rect width="16" height="16" fill="white"/>
</clipPath>
</defs>
</svg>
