<svg width="24" height="24" viewBox="0 0 24 24" fill="none" xmlns="http://www.w3.org/2000/svg">
<path fill-rule="evenodd" clip-rule="evenodd" d="M6.549 5.01294C6.24106 5.01294 5.94003 5.10426 5.68398 5.27534C5.42793 5.44643 5.22837 5.6896 5.11052 5.9741C4.99268 6.25861 4.96185 6.57167 5.02192 6.87369C5.082 7.17572 5.23029 7.45315 5.44804 7.6709C5.66579 7.88865 5.94322 8.03695 6.24525 8.09702C6.54728 8.1571 6.86034 8.12627 7.14484 8.00842C7.42935 7.89057 7.67252 7.69101 7.8436 7.43496C8.01469 7.17892 8.106 6.87789 8.106 6.56994C8.106 6.157 7.94196 5.76097 7.64997 5.46897C7.35798 5.17698 6.96195 5.01294 6.549 5.01294Z" fill="white"/>
<path d="M2 18.6051L5.901 14.7051C6.07128 14.5348 6.30221 14.4392 6.543 14.4392C6.78379 14.4392 7.01472 14.5348 7.185 14.7051L9.992 17.5111C10.1622 17.681 10.393 17.7765 10.6335 17.7765C10.874 17.7765 11.1048 17.681 11.275 17.5111L16.809 11.9771C16.9792 11.8071 17.21 11.7117 17.4505 11.7117C17.691 11.7117 17.9218 11.8071 18.092 11.9771L21.997 15.8821" stroke="white" stroke-width="2" stroke-linejoin="round"/>
<path d="M18.44 2.00393C19.3842 2.00393 20.2897 2.379 20.9573 3.04663C21.6249 3.71426 22 4.61976 22 5.56393V18.4369C22 19.3811 21.6249 20.2866 20.9573 20.9542C20.2897 21.6219 19.3842 21.9969 18.44 21.9969H5.568C4.62382 21.9969 3.71833 21.6219 3.0507 20.9542C2.38307 20.2866 2.008 19.3811 2.008 18.4369V5.56293C2.008 4.61876 2.38307 3.71326 3.0507 3.04563C3.71833 2.378 4.62382 2.00293 5.568 2.00293L18.44 2.00393Z" stroke="white" stroke-width="2" stroke-linecap="round" stroke-linejoin="round"/>
</svg>
