<svg width="134" height="40" viewBox="0 0 134 40" fill="none" xmlns="http://www.w3.org/2000/svg">
<path d="M129.037 39.9999H4.96296C2.23457 39.9999 0 37.7487 0 34.9999V4.99994C0 2.25119 2.23457 -5.89212e-05 4.96296 -5.89212e-05H129.037C131.765 -5.89212e-05 134 2.25119 134 4.99994V34.9999C134 37.7487 131.765 39.9999 129.037 39.9999Z" fill="black"/>
<path d="M47.0663 10.2437C47.0663 11.0787 46.8181 11.7474 46.3293 12.2462C45.7672 12.8374 45.0352 13.1349 44.1381 13.1349C43.2808 13.1349 42.5487 12.8324 41.9482 12.2362C41.3465 11.6312 41.0462 10.8887 41.0462 9.99993C41.0462 9.11118 41.3465 8.36868 41.9482 7.76868C42.5487 7.16743 43.2808 6.86493 44.1381 6.86493C44.5649 6.86493 44.9719 6.95368 45.3603 7.11868C45.7474 7.28493 46.0625 7.50993 46.2908 7.78743L45.7722 8.31493C45.3739 7.84118 44.8317 7.60743 44.1381 7.60743C43.5128 7.60743 42.9706 7.82743 42.5103 8.27118C42.0549 8.71618 41.8266 9.29243 41.8266 9.99993C41.8266 10.7074 42.0549 11.2887 42.5103 11.7337C42.9706 12.1724 43.5128 12.3974 44.1381 12.3974C44.8019 12.3974 45.3603 12.1724 45.8007 11.7287C46.0911 11.4349 46.2561 11.0299 46.2995 10.5124H44.1381V9.78993H47.0216C47.0564 9.94618 47.0663 10.0974 47.0663 10.2437Z" fill="white" stroke="white" stroke-width="0.16" stroke-miterlimit="10"/>
<path d="M51.6409 7.73869H48.9323V9.63869H51.3741V10.3612H48.9323V12.2612H51.6409V12.9974H48.1656V7.00244H51.6409V7.73869Z" fill="white" stroke="white" stroke-width="0.16" stroke-miterlimit="10"/>
<path d="M54.8693 12.9974H54.1025V7.73869H52.4411V7.00244H56.5318V7.73869H54.8693V12.9974Z" fill="white" stroke="white" stroke-width="0.16" stroke-miterlimit="10"/>
<path d="M59.4923 12.9974V7.00244H60.2578V12.9974H59.4923Z" fill="white" stroke="white" stroke-width="0.16" stroke-miterlimit="10"/>
<path d="M63.6512 12.9974H62.8906V7.73869H61.2231V7.00244H65.3188V7.73869H63.6512V12.9974Z" fill="white" stroke="white" stroke-width="0.16" stroke-miterlimit="10"/>
<path d="M73.0635 12.2262C72.4766 12.8324 71.7495 13.1349 70.8823 13.1349C70.01 13.1349 69.283 12.8324 68.6961 12.2262C68.1105 11.6212 67.8189 10.8787 67.8189 9.99993C67.8189 9.12118 68.1105 8.37868 68.6961 7.77368C69.283 7.16743 70.01 6.86493 70.8823 6.86493C71.7446 6.86493 72.4717 7.16743 73.0585 7.77868C73.6491 8.38868 73.9407 9.12618 73.9407 9.99993C73.9407 10.8787 73.6491 11.6212 73.0635 12.2262ZM69.2631 11.7237C69.7048 12.1724 70.242 12.3974 70.8823 12.3974C71.5175 12.3974 72.0597 12.1724 72.4965 11.7237C72.9369 11.2749 73.1603 10.6987 73.1603 9.99993C73.1603 9.30118 72.9369 8.72493 72.4965 8.27618C72.0597 7.82743 71.5175 7.60243 70.8823 7.60243C70.242 7.60243 69.7048 7.82743 69.2631 8.27618C68.8226 8.72493 68.5993 9.30118 68.5993 9.99993C68.5993 10.6987 68.8226 11.2749 69.2631 11.7237Z" fill="white" stroke="white" stroke-width="0.16" stroke-miterlimit="10"/>
<path d="M75.0164 12.9974V7.00244H75.947L78.8404 11.6649H78.8739L78.8404 10.5124V7.00244H79.6059V12.9974H78.8069L75.777 8.10494H75.7435L75.777 9.26244V12.9974H75.0164Z" fill="white" stroke="white" stroke-width="0.16" stroke-miterlimit="10"/>
<path d="M67.6303 21.7525C65.2989 21.7525 63.3944 23.54 63.3944 26.0062C63.3944 28.4525 65.2989 30.2587 67.6303 30.2587C69.9666 30.2587 71.8711 28.4525 71.8711 26.0062C71.8711 23.54 69.9666 21.7525 67.6303 21.7525ZM67.6303 28.5837C66.3511 28.5837 65.2505 27.52 65.2505 26.0062C65.2505 24.4725 66.3511 23.4275 67.6303 23.4275C68.9095 23.4275 70.015 24.4725 70.015 26.0062C70.015 27.52 68.9095 28.5837 67.6303 28.5837ZM58.388 21.7525C56.0517 21.7525 54.1521 23.54 54.1521 26.0062C54.1521 28.4525 56.0517 30.2587 58.388 30.2587C60.7231 30.2587 62.6239 28.4525 62.6239 26.0062C62.6239 23.54 60.7231 21.7525 58.388 21.7525ZM58.388 28.5837C57.1076 28.5837 56.0033 27.52 56.0033 26.0062C56.0033 24.4725 57.1076 23.4275 58.388 23.4275C59.6672 23.4275 60.7677 24.4725 60.7677 26.0062C60.7677 27.52 59.6672 28.5837 58.388 28.5837ZM47.3901 23.0562V24.8637H51.6744C51.549 25.8737 51.214 26.6162 50.7004 27.1337C50.075 27.7587 49.1011 28.4525 47.3901 28.4525C44.7535 28.4525 42.6889 26.3087 42.6889 23.6525C42.6889 20.9962 44.7535 18.8525 47.3901 18.8525C48.8157 18.8525 49.853 19.4137 50.6185 20.1412L51.8828 18.8675C50.812 17.8375 49.3877 17.0462 47.3901 17.0462C43.7746 17.0462 40.736 20.01 40.736 23.6525C40.736 27.295 43.7746 30.2587 47.3901 30.2587C49.3442 30.2587 50.812 29.6137 51.9659 28.4037C53.1484 27.2125 53.5169 25.5375 53.5169 24.185C53.5169 23.765 53.4821 23.3787 53.4201 23.0562H47.3901ZM92.362 24.4575C92.0133 23.5062 90.9376 21.7525 88.7464 21.7525C86.5751 21.7525 84.7674 23.4762 84.7674 26.0062C84.7674 28.3887 86.5565 30.2587 88.9549 30.2587C90.8942 30.2587 92.0133 29.0675 92.4736 28.3737L91.0344 27.4075C90.5542 28.115 89.9003 28.5837 88.9549 28.5837C88.0156 28.5837 87.3419 28.15 86.9101 27.295L92.5567 24.9412L92.362 24.4575ZM86.6049 25.8737C86.5565 24.2337 87.8692 23.3937 88.8097 23.3937C89.5467 23.3937 90.1721 23.765 90.3805 24.2962L86.6049 25.8737ZM82.0154 30H83.8716V17.5H82.0154V30ZM78.9756 22.7H78.9136C78.4967 22.2025 77.7014 21.7525 76.6939 21.7525C74.5797 21.7525 72.6466 23.6225 72.6466 26.02C72.6466 28.4037 74.5797 30.2587 76.6939 30.2587C77.7014 30.2587 78.4967 29.805 78.9136 29.2925H78.9756V29.9025C78.9756 31.5287 78.1133 32.4025 76.7224 32.4025C75.5884 32.4025 74.8849 31.5775 74.5946 30.8837L72.9803 31.5625C73.4456 32.69 74.6777 34.0775 76.7224 34.0775C78.8987 34.0775 80.735 32.7875 80.735 29.6487V22.0112H78.9756V22.7ZM76.8527 28.5837C75.5735 28.5837 74.5027 27.505 74.5027 26.02C74.5027 24.5212 75.5735 23.4275 76.8527 23.4275C78.1133 23.4275 79.1071 24.5212 79.1071 26.02C79.1071 27.505 78.1133 28.5837 76.8527 28.5837ZM101.052 17.5H96.6127V30H98.4639V25.2637H101.052C103.108 25.2637 105.124 23.765 105.124 21.3812C105.124 18.9987 103.103 17.5 101.052 17.5ZM101.1 23.525H98.4639V19.2387H101.1C102.483 19.2387 103.272 20.395 103.272 21.3812C103.272 22.3487 102.483 23.525 101.1 23.525ZM112.544 21.7287C111.206 21.7287 109.815 22.3237 109.243 23.6425L110.886 24.3362C111.24 23.6425 111.89 23.4175 112.577 23.4175C113.538 23.4175 114.512 23.9987 114.527 25.025V25.1562C114.192 24.9612 113.474 24.6725 112.592 24.6725C110.823 24.6725 109.02 25.6537 109.02 27.485C109.02 29.16 110.469 30.2387 112.098 30.2387C113.344 30.2387 114.031 29.6725 114.463 29.0137H114.527V29.98H116.314V25.185C116.314 22.9687 114.672 21.7287 112.544 21.7287ZM112.321 28.5787C111.715 28.5787 110.871 28.2762 110.871 27.52C110.871 26.5525 111.923 26.1812 112.834 26.1812C113.649 26.1812 114.031 26.3625 114.527 26.6012C114.381 27.7587 113.393 28.5787 112.321 28.5787ZM122.828 22.0025L120.7 27.4212H120.637L118.437 22.0025H116.441L119.746 29.575L117.86 33.7887H119.795L124.888 22.0025H122.828ZM106.142 30H107.998V17.5H106.142V30Z" fill="white"/>
<path d="M10.3577 7.53866C10.0661 7.84616 9.8974 8.32491 9.8974 8.94491V31.0599C9.8974 31.6799 10.0661 32.1587 10.3577 32.4662L10.4297 32.5337L22.7304 20.1462V19.8537L10.4297 7.46616L10.3577 7.53866Z" fill="url(#paint0_linear_1_415)"/>
<path d="M26.826 24.2774L22.7303 20.1462V19.8537L26.831 15.7224L26.9228 15.7762L31.7791 18.5599C33.165 19.3499 33.165 20.6499 31.7791 21.4449L26.9228 24.2237L26.826 24.2774Z" fill="url(#paint1_linear_1_415)"/>
<path d="M26.9228 24.2237L22.7304 19.9999L10.3577 32.4662C10.818 32.9537 11.5687 33.0124 12.4223 32.5249L26.9228 24.2237Z" fill="url(#paint2_linear_1_415)"/>
<path d="M26.9228 15.7762L12.4223 7.47494C11.5687 6.99244 10.818 7.05119 10.3577 7.53869L22.7304 19.9999L26.9228 15.7762Z" fill="url(#paint3_linear_1_415)"/>
<defs>
<linearGradient id="paint0_linear_1_415" x1="21.6382" y1="31.2902" x2="4.85629" y2="14.6326" gradientUnits="userSpaceOnUse">
<stop stop-color="#00A0FF"/>
<stop offset="0.0066" stop-color="#00A1FF"/>
<stop offset="0.2601" stop-color="#00BEFF"/>
<stop offset="0.5122" stop-color="#00D2FF"/>
<stop offset="0.7604" stop-color="#00DFFF"/>
<stop offset="1" stop-color="#00E3FF"/>
</linearGradient>
<linearGradient id="paint1_linear_1_415" x1="33.5837" y1="19.9985" x2="9.56609" y2="19.9985" gradientUnits="userSpaceOnUse">
<stop stop-color="#FFE000"/>
<stop offset="0.4087" stop-color="#FFBD00"/>
<stop offset="0.7754" stop-color="#FFA500"/>
<stop offset="1" stop-color="#FF9C00"/>
</linearGradient>
<linearGradient id="paint2_linear_1_415" x1="24.6431" y1="17.7038" x2="1.88542" y2="-4.88525" gradientUnits="userSpaceOnUse">
<stop stop-color="#FF3A44"/>
<stop offset="1" stop-color="#C31162"/>
</linearGradient>
<linearGradient id="paint3_linear_1_415" x1="7.24324" y1="39.8237" x2="17.4056" y2="29.7368" gradientUnits="userSpaceOnUse">
<stop stop-color="#32A071"/>
<stop offset="0.0685" stop-color="#2DA771"/>
<stop offset="0.4762" stop-color="#15CF74"/>
<stop offset="0.8009" stop-color="#06E775"/>
<stop offset="1" stop-color="#00F076"/>
</linearGradient>
</defs>
</svg>
