<svg width="24" height="24" viewBox="0 0 24 24" fill="none" xmlns="http://www.w3.org/2000/svg">
<path d="M22 23H15.999C15.7338 23 15.4794 22.8946 15.2919 22.7071C15.1044 22.5196 14.999 22.2652 14.999 22V16.545C15.0063 16.1469 14.9341 15.7513 14.7868 15.3814C14.6395 15.0115 14.4199 14.6746 14.141 14.3905C13.862 14.1064 13.5292 13.8807 13.162 13.7266C12.7949 13.5726 12.4007 13.4932 12.0025 13.4932C11.6043 13.4932 11.2101 13.5726 10.843 13.7266C10.4758 13.8807 10.143 14.1064 9.86403 14.3905C9.58506 14.6746 9.3655 15.0115 9.21818 15.3814C9.07086 15.7513 8.99873 16.1469 9.006 16.545V22C9.006 22.2652 8.90064 22.5196 8.71311 22.7071C8.52557 22.8946 8.27122 23 8.006 23H2C1.73478 23 1.48043 22.8946 1.29289 22.7071C1.10536 22.5196 1 22.2652 1 22V11.543C1.00009 11.4076 1.02761 11.2737 1.08088 11.1493C1.13416 11.0248 1.2121 10.9125 1.31 10.819L11.31 1.27599C11.4961 1.09893 11.7431 1.00018 12 1.00018C12.2569 1.00018 12.5039 1.09893 12.69 1.27599L22.69 10.819C22.7879 10.9125 22.8658 11.0248 22.9191 11.1493C22.9724 11.2737 22.9999 11.4076 23 11.543V22C23 22.2652 22.8946 22.5196 22.7071 22.7071C22.5196 22.8946 22.2652 23 22 23Z" fill="white"/>
</svg>
