<svg width="16" height="16" viewBox="0 0 16 16" fill="none" xmlns="http://www.w3.org/2000/svg">
<path d="M8.03531 5.40344C7.82382 5.40344 7.61707 5.46615 7.44122 5.58365C7.26537 5.70115 7.12831 5.86816 7.04738 6.06356C6.96644 6.25895 6.94527 6.47396 6.98653 6.68139C7.02779 6.88882 7.12963 7.07936 7.27918 7.22891C7.42873 7.37845 7.61927 7.4803 7.8267 7.52156C8.03413 7.56282 8.24914 7.54164 8.44453 7.46071C8.63993 7.37977 8.80693 7.24271 8.92443 7.06686C9.04193 6.89101 9.10465 6.68427 9.10465 6.47277C9.10465 6.18917 8.99199 5.91718 8.79145 5.71664C8.59091 5.5161 8.31892 5.40344 8.03531 5.40344ZM8.03531 0.666772C7.27505 0.664668 6.52181 0.812331 5.81861 1.10133C5.11541 1.39033 4.47602 1.815 3.93694 2.35111C3.39787 2.88721 2.96967 3.52425 2.67678 4.22584C2.3839 4.92743 2.23208 5.67984 2.22998 6.44011C2.22998 10.2394 6.32331 14.1034 7.63531 15.1888C7.7477 15.2821 7.88921 15.3332 8.03531 15.3332C8.18142 15.3332 8.32292 15.2821 8.43531 15.1888C9.74798 14.1034 13.8413 10.2394 13.8413 6.44011C13.8392 5.67978 13.6874 4.92732 13.3944 4.22568C13.1015 3.52405 12.6733 2.88699 12.1341 2.35087C11.595 1.81476 10.9555 1.3901 10.2522 1.10114C9.54894 0.812179 8.79564 0.66458 8.03531 0.666772ZM8.03531 13.7748C6.19331 12.1321 3.56331 9.09677 3.56331 6.44011C3.57768 5.26343 4.0552 4.13981 4.89236 3.31281C5.72952 2.48581 6.85888 2.02204 8.03565 2.02204C9.21241 2.02204 10.3418 2.48581 11.1789 3.31281C12.0161 4.13981 12.4936 5.26343 12.508 6.44011C12.508 9.09677 9.87865 12.1321 8.03531 13.7748Z" fill="white"/>
</svg>
