<svg width="103" height="29" viewBox="0 0 103 29" fill="none" xmlns="http://www.w3.org/2000/svg">
<g clip-path="url(#clip0_7_1405)">
<path fill-rule="evenodd" clip-rule="evenodd" d="M5.57122 0.0996748C3.46872 0.978737 1.16684 3.4528 0.441845 6.56124C-0.48253 10.4944 3.35091 12.1528 3.6681 11.609C4.0306 10.9747 2.97935 10.7572 2.76185 8.70905C2.48997 6.08092 3.71341 3.12655 5.25403 1.83967C5.54403 1.59499 5.52591 1.9303 5.52591 2.54655L5.47153 15.6509C5.47153 18.4603 5.35372 19.3394 5.14528 20.2184C4.93684 21.1066 4.60153 21.7047 4.84622 21.9403C5.13622 22.194 6.36872 21.5778 7.07559 20.5809C7.88326 19.349 8.3031 17.9032 8.28091 16.4303C8.34435 14.5634 8.33528 11.6 8.34435 9.91436C8.34435 8.37374 8.37153 3.83342 8.31716 1.10561C8.29903 0.434987 6.44122 -0.262825 5.57122 0.108737V0.0996748ZM80.0015 13.2222C79.9726 14.3978 79.7011 15.5548 79.204 16.6206C78.4337 18.1794 76.8206 18.6597 76.1318 16.4212C75.7693 15.2069 75.7422 13.1678 76.014 11.464C76.2859 9.74217 77.0472 8.42811 78.3068 8.54593C79.5575 8.66374 80.1375 10.2678 80.0015 13.2222ZM59.0218 22.2666C59.0037 24.6862 58.6231 26.8069 57.8075 27.4322C56.6384 28.3022 55.0887 27.6406 55.4059 25.8734C55.6868 24.3147 57.0372 22.7197 59.0309 20.7622L59.0218 22.2666ZM58.7047 13.204C58.6516 14.3823 58.3813 15.5406 57.9072 16.6206C57.1368 18.1794 55.5147 18.6597 54.835 16.4212C54.3818 14.8897 54.4906 12.9141 54.7172 11.6634C55.0162 10.0503 55.7322 8.54593 57.01 8.54593C58.2606 8.54593 58.8768 9.9053 58.7047 13.204ZM46.5518 13.1859C46.5289 14.3759 46.2605 15.5483 45.7634 16.6297C44.9659 18.1703 43.38 18.6597 42.6822 16.4212C42.1837 14.8172 42.3559 12.615 42.5643 11.4369C42.8725 9.66967 43.6518 8.42811 44.8572 8.53686C46.1078 8.66374 46.7059 10.2587 46.5518 13.1859ZM102.241 14.8262C101.942 14.8262 101.797 15.1434 101.688 15.6691C101.289 17.4997 100.872 17.9166 100.329 17.9166C99.7306 17.9166 99.1869 17.0103 99.0419 15.1978C98.9331 13.7659 98.9512 11.1378 99.0962 8.51874C99.1234 7.98405 98.9693 7.45842 97.5284 6.9328C96.9122 6.70624 96.0059 6.37092 95.5618 7.45842C94.6644 9.52764 94.0311 11.7016 93.6768 13.9291C93.6768 13.9834 93.6043 13.9925 93.5862 13.8747C93.5228 13.0862 93.3506 11.6453 93.3325 8.62749C93.3325 8.03843 93.2056 7.53999 92.5531 7.13217C92.1272 6.8603 90.8493 6.39811 90.3781 6.95092C89.9884 7.40405 89.5262 8.64561 89.0459 10.1047L88.3753 12.0984L88.3843 7.67592C88.3843 7.2228 88.0762 7.06874 87.9765 7.04155C87.4448 6.87755 86.8986 6.76526 86.3453 6.70624C85.9103 6.70624 85.8015 6.95092 85.8015 7.31342C85.8015 7.35874 85.729 11.5275 85.729 14.4456V14.8625C85.4843 16.2037 84.6959 18.0253 83.835 18.0253C82.974 18.0253 82.5662 17.264 82.5662 13.784C82.5662 11.754 82.6297 10.875 82.6568 9.40686C82.675 8.55499 82.7112 7.91155 82.7112 7.76655C82.7022 7.31342 81.9228 7.08686 81.5603 6.99624C81.1978 6.91467 80.8715 6.87842 80.6268 6.89655C80.2643 6.91467 80.0197 7.14124 80.0197 7.45842V7.95686C79.6285 7.33825 79.0463 6.86415 78.3612 6.60655C77.0562 6.21686 75.6968 6.56124 74.6728 7.99311C73.7888 9.25755 73.2685 10.7402 73.1684 12.2797C73.0234 13.639 73.0778 15.0075 73.3225 16.1765C73.0234 17.4816 72.4525 18.0253 71.8362 18.0253C70.939 18.0253 70.2956 16.5572 70.3681 14.0378C70.4225 12.3703 70.7487 11.2012 71.1112 9.51561C71.2653 8.79061 71.1475 8.42811 70.8303 8.06561C70.5403 7.7303 69.924 7.55811 69.0268 7.76655C68.3925 7.91155 67.4862 8.07467 66.6706 8.19249C66.6706 8.19249 66.7159 8.00217 66.7612 7.64874C66.9697 5.80905 64.9669 5.95405 64.3234 6.54311C63.9428 6.89655 63.689 7.30436 63.5803 8.05655C63.4262 9.23467 64.3959 9.78749 64.3959 9.78749C63.7731 12.1398 62.7292 14.3597 61.3147 16.3397V15.7053C61.3056 12.6603 61.3418 10.2678 61.36 9.40686C61.3781 8.55499 61.4143 7.92967 61.4143 7.77561C61.4143 7.44936 61.215 7.32249 60.8162 7.16842C60.4537 7.02342 60.0368 6.9328 59.6018 6.89655C59.0581 6.85124 58.7228 7.14124 58.7318 7.48561V7.95686C58.3389 7.33627 57.7531 6.86186 57.0643 6.60655C55.7593 6.21686 54.4 6.56124 53.3759 7.99311C52.5236 9.2702 52.0063 10.7412 51.8715 12.2706C51.7356 13.6934 51.7537 14.8987 51.9531 15.9319C51.7447 16.9559 51.1465 18.0162 50.4759 18.0162C49.615 18.0162 49.1165 17.264 49.1165 13.784C49.1165 11.754 49.18 10.875 49.2072 9.40686C49.2253 8.55499 49.2615 7.91155 49.2615 7.76655C49.2615 7.31342 48.4731 7.08686 48.1106 6.99624C47.73 6.90561 47.3947 6.87842 47.15 6.90561C46.8147 6.92374 46.579 7.2228 46.579 7.44936V7.95686C46.1861 7.33627 45.6003 6.86186 44.9115 6.60655C43.6065 6.21686 42.2562 6.5703 41.2231 7.99311C40.5434 8.92655 39.9997 9.95967 39.7187 12.2525C39.6426 12.8657 39.6063 13.4833 39.61 14.1012C39.3381 15.7415 38.1509 17.6356 37.1812 17.6356C36.6103 17.6356 36.0665 16.539 36.0665 14.1919C36.0665 11.0653 36.2659 6.61561 36.2931 6.18967L37.7612 6.16249C38.3775 6.16249 38.9303 6.17155 39.7459 6.12624C40.1537 6.10811 40.5434 4.63999 40.1265 4.45874C39.9362 4.37717 38.5859 4.30467 38.0422 4.29561C37.589 4.28655 36.3384 4.19592 36.3384 4.19592C36.3384 4.19592 36.4562 1.24155 36.4834 0.933425C36.5015 0.66155 36.1662 0.534675 35.9668 0.453112C35.5195 0.273072 35.0549 0.139454 34.5803 0.0543622C33.8915 -0.0815753 33.5834 0.054362 33.52 0.634362C33.4293 1.51342 33.384 4.09624 33.384 4.09624C32.8765 4.09624 31.1456 3.99655 30.6472 3.99655C30.1759 3.99655 29.6684 6.00842 30.3209 6.03561L33.2209 6.11717L33.1937 12.035V12.4609C32.7134 14.935 31.0459 16.2672 31.0459 16.2672C31.4084 14.6359 30.6653 13.4125 29.3512 12.3703C28.8618 11.9897 27.9012 11.2647 26.8228 10.4672C26.8228 10.4672 27.4481 9.85092 28.0009 8.61842C28.3906 7.74843 28.4087 6.75155 27.4481 6.53405C25.8622 6.16249 24.5481 7.32249 24.1584 8.57311C24.0063 8.97795 23.9682 9.41674 24.0481 9.84175C24.128 10.2668 24.3229 10.6617 24.6115 10.9837L24.7475 11.1559C24.385 11.8447 23.8956 12.769 23.4787 13.494C22.3278 15.4878 21.4487 17.0737 20.7872 17.0737C20.2615 17.0737 20.2706 15.4697 20.2706 13.9653C20.2706 12.6694 20.3612 10.7209 20.4428 8.70905C20.47 8.03842 20.1347 7.6578 19.5728 7.31342C19.126 7.00435 18.6199 6.79142 18.0865 6.68811C17.4522 6.68811 15.6397 6.77874 13.9178 11.7359C13.7093 12.3612 13.2834 13.494 13.2834 13.494L13.3197 7.53999C13.3197 7.39499 13.2472 7.26811 13.075 7.17749C12.5341 6.88998 11.9374 6.72303 11.3259 6.68811C10.9997 6.68811 10.8365 6.84217 10.8365 7.14124L10.7731 16.4756C10.7731 17.1825 10.7912 18.0072 10.8637 18.3697C10.9362 18.7322 11.045 19.0222 11.19 19.1944C11.3259 19.3756 11.489 19.5025 11.7518 19.5569C12.0056 19.6112 13.365 19.7834 13.4375 19.2669C13.5281 18.6416 13.5281 17.9709 14.244 15.4606C15.3497 11.5547 16.7997 9.64249 17.4884 8.97186C17.6062 8.84499 17.7422 8.84499 17.7331 9.0353L17.5337 13.8566C17.3525 18.7231 18.2406 19.6203 19.5003 19.6203C20.47 19.6203 21.8384 18.6597 23.3065 16.2309L25.7534 12.1528L27.1853 13.4759C28.3453 14.5634 28.7259 15.6147 28.4722 16.6025C28.2818 17.3547 27.5478 18.1431 26.2609 17.3819C25.8803 17.1553 25.7172 16.9831 25.3456 16.7384C25.1372 16.6025 24.829 16.5572 24.6387 16.7022C24.1584 17.0647 23.8775 17.5359 23.7234 18.1069C23.5693 18.6597 24.1312 18.9587 24.7112 19.2125C25.2097 19.4391 26.2881 19.6384 26.9768 19.6656C29.6412 19.7562 31.78 18.3787 33.2662 14.8262C33.5381 17.8894 34.6709 19.6294 36.6375 19.6294C37.9515 19.6294 39.2747 17.9256 39.8547 16.2581C40.0178 16.9378 40.2625 17.5269 40.5797 18.0344C42.1022 20.4359 45.0475 19.9103 46.5247 17.8712C46.9778 17.2459 47.0503 17.0194 47.0503 17.0194C47.0945 17.7055 47.3912 18.3509 47.8832 18.8312C48.3752 19.3115 49.0277 19.5926 49.7147 19.6203C50.7115 19.6203 51.7356 19.149 52.4606 17.5269C52.5422 17.7081 52.6418 17.8712 52.7325 18.0344C54.255 20.4359 57.2003 19.9103 58.6775 17.8712L58.8587 17.6175L58.904 18.8862L57.5447 20.1278C55.2609 22.2122 53.5209 23.7981 53.394 25.6469C53.2309 28.0031 55.1431 28.8731 56.5931 28.9909C57.3183 29.027 58.0401 28.8688 58.6837 28.5326C59.3274 28.1965 59.8696 27.6946 60.2543 27.0787C60.9612 26.0366 61.4325 23.789 61.3962 21.5687L61.3418 18.3425C63.5126 15.8322 65.1802 12.9278 66.2537 9.78749C66.2537 9.78749 67.0965 9.79655 67.9937 9.74217C68.2837 9.72405 68.3653 9.77843 68.3109 9.98686C68.2475 10.2406 67.1781 14.3731 68.1568 17.1281C68.8275 19.0131 70.3318 19.6203 71.2381 19.6203C72.2803 19.6203 73.2862 18.8319 73.8209 17.6537L74.0293 18.0344C75.5518 20.4359 78.4881 19.9103 79.9743 17.8712C80.3097 17.4181 80.5 17.0194 80.5 17.0194C80.8262 19.0131 82.3759 19.6294 83.264 19.6294C84.1884 19.6294 85.0765 19.2487 85.7834 17.5631C85.8106 18.3062 85.8559 18.9134 85.9284 19.1037C85.9737 19.2215 86.2365 19.3756 86.4359 19.4391C87.2787 19.7472 88.1396 19.6022 88.4659 19.5387C88.6834 19.4934 88.8556 19.3122 88.8828 18.8591C88.9462 17.6537 88.91 15.6328 89.2725 14.1375C89.8797 11.609 90.4506 10.6303 90.7225 10.15C90.8765 9.87811 91.0487 9.8328 91.0578 10.1228C91.0668 10.7028 91.094 12.4065 91.3297 14.6994C91.5109 16.385 91.7465 17.3819 91.9187 17.69C92.4353 18.5962 93.0696 18.6416 93.5771 18.6416C93.9034 18.6416 94.5922 18.5509 94.5287 17.98C94.5015 17.6991 94.5468 15.9681 95.1631 13.485C95.5528 11.8628 96.2053 10.4037 96.4409 9.85999C96.5315 9.66967 96.5769 9.82374 96.5769 9.85999C96.5225 10.9656 96.4137 14.6178 96.8668 16.6206C97.4831 19.3212 99.2684 19.6294 99.8937 19.6294C101.226 19.6294 102.313 18.6144 102.676 15.9591C102.767 15.3247 102.631 14.8262 102.241 14.8262Z" fill="white"/>
</g>
<defs>
<clipPath id="clip0_7_1405">
<rect width="103" height="29" fill="white"/>
</clipPath>
</defs>
</svg>
