<svg width="18" height="18" viewBox="0 0 18 18" fill="none" xmlns="http://www.w3.org/2000/svg">
<g clip-path="url(#clip0_7_1480)">
<path d="M8.62652 17.2486C6.77392 17.2572 4.96837 16.6655 3.4802 15.5621C1.99203 14.4587 0.901316 12.9029 0.371357 11.1277C0.33186 10.9976 0.328513 10.8592 0.361676 10.7274C0.394839 10.5955 0.463261 10.4752 0.559607 10.3792C0.656201 10.2841 0.776511 10.2166 0.908024 10.1838C1.03954 10.1509 1.17745 10.1539 1.30741 10.1925C1.97812 10.3965 2.67544 10.4997 3.3765 10.4986C4.48883 10.4977 5.58552 10.2365 6.5789 9.73603C7.57228 9.23555 8.43481 8.50964 9.09755 7.61629C9.76029 6.72295 10.2049 5.68696 10.3957 4.59113C10.5866 3.4953 10.5185 2.37001 10.1968 1.3052C10.1573 1.17522 10.1539 1.03697 10.1869 0.905198C10.2199 0.773425 10.288 0.653076 10.384 0.55699C10.48 0.460903 10.6003 0.392685 10.7321 0.359614C10.8638 0.326542 11.0021 0.329857 11.1321 0.369205C13.111 0.97011 14.8081 2.26201 15.9142 4.00947C17.0203 5.75694 17.4617 7.84365 17.1581 9.88935C16.8544 11.9351 15.8259 13.8036 14.2599 15.1544C12.6938 16.5052 10.6946 17.2484 8.62652 17.2486ZM2.3174 11.9341C3.05759 13.3448 4.24921 14.4668 5.70191 15.1207C7.15461 15.7746 8.78456 15.9229 10.3314 15.5417C11.8782 15.1605 13.2527 14.2719 14.2352 13.0178C15.2177 11.7638 15.7516 10.2166 15.7515 8.62353C15.745 7.3254 15.3869 6.05327 14.7153 4.94238C14.0436 3.83149 13.0835 2.92335 11.937 2.31449C12.097 3.61606 11.9583 4.93698 11.5314 6.17693C11.1045 7.41688 10.4007 8.54326 9.47345 9.47054C8.54617 10.3978 7.41979 11.1016 6.17984 11.5285C4.93989 11.9554 3.61897 12.0941 2.3174 11.9341Z" fill="white"/>
</g>
<defs>
<clipPath id="clip0_7_1480">
<rect width="18" height="18" fill="white"/>
</clipPath>
</defs>
</svg>