<svg width="96" height="77" viewBox="0 0 96 77" fill="none" xmlns="http://www.w3.org/2000/svg">
<path d="M16.0328 24.0902H16.3279C19.082 23.8935 21.1475 21.5328 21.0492 18.7787C20.8525 16.0246 18.4918 13.959 15.7377 14.0574C12.9836 14.1557 10.918 16.6148 11.0164 19.3689C11.1147 22.0246 13.377 24.0902 16.0328 24.0902ZM13.6721 17.0082C14.1639 16.418 14.9508 16.0246 15.7377 16.0246H15.9344C17.6066 16.0246 18.9836 17.4016 18.9836 19.0738C18.9836 20.7459 17.6066 22.123 15.9344 22.123C14.2623 22.123 12.8852 20.7459 12.8852 19.0738C12.8852 18.2869 13.1803 17.5984 13.6721 17.0082Z" fill="white"/>
<path d="M83.3115 18.5819L57.0492 17.1065L56.8525 14.1557C56.5574 8.54916 51.7377 4.22129 46.0328 4.51637L12.6885 6.38523C7.08197 6.68031 2.7541 11.5983 3.04918 17.2049L4.91803 50.6475V51.4344C5.60656 56.5492 9.93443 60.3852 15.0492 60.3852H15.6393L36.9836 59.2049V59.7951C36.6885 65.4016 40.918 70.3197 46.623 70.6147L80.0656 72.582H80.6557C86.0656 72.582 90.5902 68.3524 90.8853 62.9426L92.8525 29.5C93.2459 23.7951 88.918 18.9754 83.3115 18.5819ZM7.08197 11.1065C8.55738 9.43441 10.623 8.4508 12.7869 8.35244L46.2295 6.48359C50.7541 6.1885 54.6885 9.72949 54.9836 14.2541L55.1803 17.0082L49.9672 16.7131C44.3607 16.418 39.4426 20.6475 39.1475 26.3524L38.5574 35.6967L29.2131 46.2213C29.0164 46.5164 28.623 46.6147 28.2295 46.7131C27.8361 46.7131 27.541 46.6147 27.2459 46.3197L19.5738 39.4344C18.1967 38.1557 16.1311 38.3524 14.8525 39.7295L6.88525 48.6803L5.11475 17.2049C4.91803 14.9426 5.70492 12.7787 7.08197 11.1065ZM15.6393 58.3197C11.4098 58.5164 7.67213 55.5656 6.98361 51.3361L16.2295 41.0082C16.4262 40.7131 16.8197 40.6147 17.2131 40.5164C17.6066 40.5164 17.9016 40.6147 18.1967 40.9098L25.8689 47.7951C26.5574 48.3852 27.4426 48.6803 28.3279 48.6803C29.2131 48.6803 30 48.1885 30.5902 47.5983L38.2623 38.9426L37.1803 57.2377L15.6393 58.3197ZM90.8853 29.3033L88.918 62.7459C88.623 67.2705 84.6885 70.8115 80.1639 70.5164L46.7213 68.5492C42.1967 68.2541 38.6557 64.3197 38.9508 59.7951L40.918 26.3524C41.2131 22.0246 44.7541 18.5819 49.1803 18.5819H49.6721L83.1148 20.5492C87.7377 20.8442 91.1803 24.7787 90.8853 29.3033Z" fill="white"/>
<path d="M76.918 41.4016L60.2951 30.4836C58.2295 29.1065 55.4754 29.6967 54.1967 31.7623C53.8033 32.4508 53.5082 33.1393 53.5082 33.9262L52.3279 53.6967C52.2295 56.1557 54 58.2213 56.459 58.418H56.7541C57.4426 58.418 58.1311 58.2213 58.7213 57.9262L76.4262 49.0738C78.5902 47.9918 79.4754 45.3361 78.3934 43.1721C78 42.4836 77.5082 41.8934 76.918 41.4016ZM75.541 47.3033L57.8361 56.1557C57.4426 56.3524 57.0492 56.4508 56.5574 56.4508C56.1639 56.4508 55.6721 56.2541 55.377 56.0574C54.6885 55.5656 54.1967 54.7787 54.2951 53.8934L55.4754 34.1229C55.5738 33.2377 56.0656 32.4508 56.8525 32.0574C57.6393 31.6639 58.5246 31.7623 59.3115 32.1557L75.7377 43.0738C76.918 43.8606 77.2131 45.3361 76.4262 46.418C76.2295 46.8115 75.9344 47.1065 75.541 47.3033Z" fill="white"/>
</svg>
