<svg width="18" height="18" viewBox="0 0 18 18" fill="none" xmlns="http://www.w3.org/2000/svg">
<g clip-path="url(#clip0_7_1483)">
<path d="M13.5007 0.75H4.50073C3.50654 0.751191 2.5534 1.14666 1.8504 1.84966C1.14739 2.55267 0.751923 3.5058 0.750732 4.5V11.2537C0.751923 12.2479 1.14739 13.2011 1.8504 13.9041C2.5534 14.6071 3.50654 15.0026 4.50073 15.0037H6.38623L8.47798 17.0378C8.61797 17.1738 8.80551 17.2499 9.00073 17.2499C9.19596 17.2499 9.38349 17.1738 9.52348 17.0378L11.6137 15.0037H13.5007C14.4949 15.0026 15.4481 14.6071 16.1511 13.9041C16.8541 13.2011 17.2495 12.2479 17.2507 11.2537V4.5C17.2495 3.5058 16.8541 2.55267 16.1511 1.84966C15.4481 1.14666 14.4949 0.751191 13.5007 0.75ZM15.7507 11.2537C15.7501 11.8503 15.5129 12.4223 15.0911 12.8441C14.6692 13.2659 14.0973 13.5032 13.5007 13.5037H11.2987C11.1844 13.5038 11.0715 13.5299 10.9689 13.5802C10.8662 13.6305 10.7763 13.7037 10.7062 13.794L9.00073 15.453L7.29373 13.794C7.22363 13.7037 7.1338 13.6305 7.03111 13.5802C6.92842 13.5299 6.81559 13.5038 6.70123 13.5037H4.49998C3.90343 13.5032 3.33148 13.2659 2.90965 12.8441C2.48782 12.4223 2.25058 11.8503 2.24998 11.2537V4.5C2.25058 3.90345 2.48782 3.3315 2.90965 2.90967C3.33148 2.48784 3.90343 2.2506 4.49998 2.25H13.5C14.0965 2.2506 14.6685 2.48784 15.0903 2.90967C15.5121 3.3315 15.7494 3.90345 15.75 4.5L15.7507 11.2537ZM9.00073 10.0087C8.81836 10.0086 8.64005 10.0626 8.48835 10.1638C8.33666 10.265 8.2184 10.409 8.14854 10.5774C8.07868 10.7459 8.06036 10.9313 8.09591 11.1101C8.13145 11.289 8.21925 11.4533 8.34821 11.5823C8.47716 11.7112 8.64147 11.799 8.82034 11.8346C8.99921 11.8701 9.18461 11.8518 9.35307 11.7819C9.52153 11.7121 9.66548 11.5938 9.7667 11.4421C9.86793 11.2904 9.92188 11.1121 9.92173 10.9298C9.92153 10.6853 9.82436 10.451 9.65154 10.2782C9.47872 10.1054 9.24438 10.0082 8.99998 10.008L9.00073 10.0087ZM9.00073 3.921C8.86998 3.91999 8.74041 3.94583 8.62005 3.99692C8.49969 4.048 8.39109 4.12325 8.30098 4.218C8.22206 4.30151 8.16132 4.40049 8.1226 4.50866C8.08387 4.61684 8.068 4.73188 8.07598 4.8465L8.33623 8.49225C8.35661 8.65391 8.43528 8.80259 8.55749 8.91036C8.6797 9.01813 8.83704 9.0776 8.99998 9.0776C9.16292 9.0776 9.32027 9.01813 9.44248 8.91036C9.56468 8.80259 9.64336 8.65391 9.66373 8.49225L9.92473 4.84725C9.93281 4.73262 9.91698 4.61756 9.87825 4.50937C9.83952 4.40118 9.77872 4.30221 9.69973 4.21875C9.60974 4.12379 9.50119 4.04836 9.38081 3.99714C9.26043 3.94591 9.1308 3.92 8.99998 3.921H9.00073Z" fill="white"/>
</g>
<defs>
<clipPath id="clip0_7_1483">
<rect width="18" height="18" fill="white"/>
</clipPath>
</defs>
</svg>
