<svg width="24" height="24" viewBox="0 0 24 24" fill="none" xmlns="http://www.w3.org/2000/svg">
<path d="M19.5 10.6709V11.5679C19.5 13.557 18.7098 15.4647 17.3033 16.8712C15.8968 18.2777 13.9891 19.0679 12 19.0679C10.0109 19.0679 8.10322 18.2777 6.6967 16.8712C5.29018 15.4647 4.5 13.557 4.5 11.5679V10.6709" stroke="white" stroke-width="2" stroke-linecap="round" stroke-linejoin="round"/>
<path d="M12 19.0681V22.0001" stroke="white" stroke-width="2" stroke-linejoin="round"/>
<path d="M8.70599 22H15.104" stroke="white" stroke-width="2" stroke-linecap="round" stroke-linejoin="round"/>
<path d="M12 15.745C10.9391 15.745 9.92172 15.3236 9.17157 14.5734C8.42143 13.8233 8 12.8059 8 11.745V6C8 4.93913 8.42143 3.92172 9.17157 3.17157C9.92172 2.42143 10.9391 2 12 2C13.0609 2 14.0783 2.42143 14.8284 3.17157C15.5786 3.92172 16 4.93913 16 6V11.745C16 12.8059 15.5786 13.8233 14.8284 14.5734C14.0783 15.3236 13.0609 15.745 12 15.745Z" stroke="white" stroke-width="2" stroke-linecap="round" stroke-linejoin="round"/>
</svg>
