<svg width="24" height="24" viewBox="0 0 24 24" fill="none" xmlns="http://www.w3.org/2000/svg">
<path d="M2.04901 7.00201H21.95" stroke="white" stroke-width="2" stroke-linejoin="round"/>
<path d="M13.504 2.00098L16.362 7.00198" stroke="white" stroke-width="2" stroke-linecap="round" stroke-linejoin="round"/>
<path d="M7.207 2.10999L10.002 7.00199" stroke="white" stroke-width="2" stroke-linecap="round" stroke-linejoin="round"/>
<path d="M2 12.001V15.45C2 18.299 2.698 19.456 3.606 20.395C4.546 21.303 5.704 22.002 8.552 22.002H15.448C18.296 22.002 19.454 21.303 20.394 20.395C21.302 19.456 22 18.299 22 15.45V8.552C22 5.704 21.302 4.546 20.394 3.607C19.454 2.699 18.296 2 15.448 2H8.552C5.704 2 4.546 2.699 3.606 3.607C2.698 4.546 2 5.704 2 8.552V12.001Z" stroke="white" stroke-width="2" stroke-linecap="round" stroke-linejoin="round"/>
<path fill-rule="evenodd" clip-rule="evenodd" d="M9.76299 17.664C9.62486 17.5842 9.51018 17.4695 9.43048 17.3313C9.35078 17.1932 9.30888 17.0365 9.30899 16.877V11.63C9.3088 11.4703 9.35069 11.3133 9.43044 11.175C9.51019 11.0366 9.62499 10.9217 9.76328 10.8418C9.90156 10.7619 10.0585 10.7199 10.2182 10.7199C10.3779 10.7199 10.5347 10.762 10.673 10.842L15.218 13.466C15.3563 13.5457 15.4712 13.6605 15.5511 13.7987C15.6309 13.937 15.673 14.0938 15.673 14.2535C15.673 14.4131 15.6309 14.57 15.5511 14.7082C15.4712 14.8465 15.3563 14.9612 15.218 15.041L10.673 17.665C10.5347 17.7449 10.3777 17.7869 10.218 17.7869C10.0583 17.7869 9.90133 17.7449 9.76299 17.665V17.664Z" fill="white"/>
</svg>
