<svg width="16" height="16" viewBox="0 0 16 16" fill="none" xmlns="http://www.w3.org/2000/svg">
<path d="M6.66666 13.3333H2.66666V9.33331C2.66666 9.1565 2.59642 8.98693 2.4714 8.86191C2.34638 8.73688 2.17681 8.66665 1.99999 8.66665C1.82318 8.66665 1.65361 8.73688 1.52859 8.86191C1.40357 8.98693 1.33333 9.1565 1.33333 9.33331V14C1.33333 14.1768 1.40357 14.3464 1.52859 14.4714C1.65361 14.5964 1.82318 14.6666 1.99999 14.6666H6.66666C6.84347 14.6666 7.01304 14.5964 7.13807 14.4714C7.26309 14.3464 7.33333 14.1768 7.33333 14C7.33333 13.8232 7.26309 13.6536 7.13807 13.5286C7.01304 13.4036 6.84347 13.3333 6.66666 13.3333ZM13.9993 1.33331H9.33333C9.15652 1.33331 8.98695 1.40355 8.86192 1.52858C8.7369 1.6536 8.66666 1.82317 8.66666 1.99998C8.66666 2.17679 8.7369 2.34636 8.86192 2.47138C8.98695 2.59641 9.15652 2.66665 9.33333 2.66665H13.3327V6.66665C13.3327 6.84346 13.4029 7.01303 13.5279 7.13805C13.6529 7.26308 13.8225 7.33331 13.9993 7.33331C14.1761 7.33331 14.3457 7.26308 14.4707 7.13805C14.5958 7.01303 14.666 6.84346 14.666 6.66665V1.99998C14.666 1.82317 14.5958 1.6536 14.4707 1.52858C14.3457 1.40355 14.1761 1.33331 13.9993 1.33331Z" fill="white"/>
</svg>
