<svg width="18" height="18" viewBox="0 0 18 18" fill="none" xmlns="http://www.w3.org/2000/svg">
<g clip-path="url(#clip0_8_1785)">
<path d="M8.99999 15.4762C12.5767 15.4762 15.4762 12.5767 15.4762 8.99999C15.4762 5.42326 12.5767 2.52374 8.99999 2.52374C5.42326 2.52374 2.52374 5.42326 2.52374 8.99999C2.52374 12.5767 5.42326 15.4762 8.99999 15.4762Z" stroke="white" stroke-width="1.5" stroke-linecap="round" stroke-linejoin="round"/>
<path d="M10.674 2.742C10.5453 2.70602 10.4257 2.64335 10.3228 2.55806C10.2199 2.47278 10.1362 2.36679 10.077 2.247L9.6975 1.5H8.3025L7.92375 2.247C7.86456 2.36679 7.78081 2.47278 7.67795 2.55806C7.5751 2.64335 7.45543 2.70602 7.32675 2.742M7.326 15.258C7.45468 15.294 7.57435 15.3567 7.6772 15.4419C7.78006 15.5272 7.86381 15.6332 7.923 15.753L8.30175 16.5H9.69825L10.077 15.753C10.1362 15.6332 10.2199 15.5272 10.3228 15.4419C10.4257 15.3567 10.5453 15.294 10.674 15.258M2.742 7.326C2.70602 7.45468 2.64335 7.57435 2.55806 7.6772C2.47278 7.78006 2.36679 7.86381 2.247 7.923L1.5 8.3025V9.699L2.247 10.0778C2.36679 10.1369 2.47278 10.2207 2.55806 10.3235C2.64335 10.4264 2.70602 10.5461 2.742 10.6747M15.258 10.674C15.294 10.5453 15.3567 10.4257 15.4419 10.3228C15.5272 10.2199 15.6332 10.1362 15.753 10.077L16.5 9.6975V8.3025L15.753 7.92375C15.6332 7.86456 15.5272 7.78081 15.4419 7.67795C15.3567 7.5751 15.294 7.45543 15.258 7.32675M5.7585 3.3915C5.64201 3.45708 5.51302 3.49738 5.37992 3.50979C5.24682 3.52219 5.1126 3.50642 4.986 3.4635L4.191 3.2025L3.2025 4.19025L3.4635 4.98675C3.50642 5.11335 3.52219 5.24757 3.50979 5.38067C3.49738 5.51377 3.45708 5.64276 3.3915 5.75925M12.2415 14.6085C12.358 14.5429 12.487 14.5026 12.6201 14.4902C12.7532 14.4778 12.8874 14.4936 13.014 14.5365L13.809 14.7975L14.7975 13.8098L14.5365 13.0132C14.4936 12.8867 14.4778 12.7524 14.4902 12.6193C14.5026 12.4862 14.5429 12.3572 14.6085 12.2407M3.3915 12.2415C3.45708 12.358 3.49738 12.487 3.50979 12.6201C3.52219 12.7532 3.50642 12.8874 3.4635 13.014L3.2025 13.809L4.19025 14.7975L4.98675 14.5365C5.11335 14.4936 5.24757 14.4778 5.38067 14.4902C5.51377 14.5026 5.64276 14.5429 5.75925 14.6085M14.6085 5.7585C14.5429 5.64201 14.5026 5.51302 14.4902 5.37992C14.4778 5.24682 14.4936 5.1126 14.5365 4.986L14.7975 4.191L13.8098 3.2025L13.0132 3.4635C12.8867 3.50642 12.7524 3.52219 12.6193 3.50979C12.4862 3.49738 12.3572 3.45708 12.2407 3.3915" stroke="white" stroke-width="1.5" stroke-linejoin="round"/>
</g>
<defs>
<clipPath id="clip0_8_1785">
<rect width="18" height="18" fill="white"/>
</clipPath>
</defs>
</svg>
