<svg clip-rule="evenodd" fill-rule="evenodd" stroke-linejoin="round" stroke-miterlimit="2" viewBox="0 0 64 64" xmlns="http://www.w3.org/2000/svg"><path d="m-1024-64h1280v800h-1280z" fill="none"/><path d="m46.03 32c0-2.751 2.233-4.985 4.985-4.985 2.751 0 4.985 2.234 4.985 4.985s-2.234 4.985-4.985 4.985c-2.752 0-4.985-2.234-4.985-4.985z" fill="#d9d9d9"/><path d="m41.92 41.92c1.946-1.945 5.105-1.945 7.051 0 1.945 1.946 1.945 5.105 0 7.051-1.946 1.945-5.105 1.945-7.051 0-1.945-1.946-1.945-5.105 0-7.051z" fill="#b3b3b3"/><circle cx="32" cy="51.015" fill="#8c8c8c" r="4.985"/><path d="m22.08 41.92c1.945 1.946 1.945 5.105 0 7.051-1.946 1.945-5.105 1.945-7.051 0-1.945-1.946-1.945-5.105 0-7.051 1.946-1.945 5.105-1.945 7.051 0z" fill="#666"/><path d="m17.97 32c0 2.751-2.233 4.985-4.985 4.985-2.751 0-4.985-2.234-4.985-4.985s2.234-4.985 4.985-4.985c2.752 0 4.985 2.234 4.985 4.985z" fill="#404040"/><path d="m22.08 22.08c-1.946 1.945-5.105 1.945-7.051 0-1.945-1.946-1.945-5.105 0-7.051 1.946-1.945 5.105-1.945 7.051 0 1.945 1.946 1.945 5.105 0 7.051z" fill="#404040"/><circle cx="32" cy="12.985" r="4.985"/></svg>