<svg width="12" height="12" viewBox="0 0 12 12" fill="none" xmlns="http://www.w3.org/2000/svg">
<g clip-path="url(#clip0_100_360)">
<path d="M5.1005 1.89854L6 0.998535L6.8995 1.89854C7.04861 2.04746 7.25076 2.13109 7.4615 2.13104H10.091C10.3321 2.13104 10.5633 2.2268 10.7338 2.39728C10.9042 2.56775 11 2.79895 11 3.04004V10.092C11 10.3331 10.9042 10.5643 10.7338 10.7348C10.5633 10.9053 10.3321 11.001 10.091 11.001H1.909C1.66792 11.001 1.43671 10.9053 1.26624 10.7348C1.09577 10.5643 1 10.3331 1 10.092V3.04004C1 2.79895 1.09577 2.56775 1.26624 2.39728C1.43671 2.2268 1.66792 2.13104 1.909 2.13104H4.539C4.74957 2.13096 4.95151 2.04734 5.1005 1.89854Z" stroke="white" stroke-linecap="round" stroke-linejoin="round"/>
<path d="M9.299 11.0011V10.7001C9.299 10.1765 9.09104 9.67436 8.72085 9.30408C8.35067 8.9338 7.84858 8.72572 7.325 8.72559H4.74749C4.22382 8.72559 3.7216 8.93361 3.35131 9.3039C2.98102 9.67419 2.77299 10.1764 2.77299 10.7001V11.0016" stroke="white" stroke-linecap="round" stroke-linejoin="round"/>
<path d="M6.036 7.31552C7.01796 7.31552 7.814 6.51948 7.814 5.53752C7.814 4.55556 7.01796 3.75952 6.036 3.75952C5.05403 3.75952 4.258 4.55556 4.258 5.53752C4.258 6.51948 5.05403 7.31552 6.036 7.31552Z" stroke="white" stroke-linecap="round" stroke-linejoin="round"/>
</g>
<defs>
<clipPath id="clip0_100_360">
<rect width="12" height="12" fill="white"/>
</clipPath>
</defs>
</svg>
