<svg width="18" height="18" viewBox="0 0 18 18" fill="none" xmlns="http://www.w3.org/2000/svg">
<path d="M13.2691 8.34265C13.1916 8.30549 13.1128 8.26972 13.033 8.23548C12.8941 5.67546 11.4952 4.20984 9.14643 4.19484C9.13579 4.19478 9.1252 4.19478 9.11456 4.19478C7.70966 4.19478 6.54123 4.79446 5.82206 5.88569L7.11384 6.77183C7.65109 5.95672 8.49424 5.78295 9.11518 5.78295C9.12235 5.78295 9.12955 5.78295 9.13665 5.78302C9.91003 5.78795 10.4936 6.01281 10.8713 6.45131C11.1462 6.77056 11.3301 7.21172 11.4211 7.76848C10.7354 7.65194 9.99384 7.61611 9.20109 7.66156C6.96794 7.79019 5.53229 9.09262 5.62871 10.9024C5.67764 11.8204 6.13497 12.6101 6.91641 13.126C7.5771 13.5622 8.42803 13.7754 9.3124 13.7272C10.4803 13.6631 11.3965 13.2175 12.0357 12.4028C12.5212 11.784 12.8282 10.9822 12.9637 9.97181C13.5203 10.3077 13.9328 10.7498 14.1607 11.2811C14.548 12.1844 14.5706 13.6687 13.3595 14.8789C12.2983 15.939 11.0227 16.3976 9.09502 16.4118C6.95664 16.3959 5.33942 15.7102 4.28795 14.3735C3.30333 13.1218 2.79447 11.3139 2.77549 9C2.79447 6.68604 3.30333 4.87815 4.28795 3.6265C5.33942 2.28983 6.95662 1.60406 9.09499 1.58817C11.2489 1.60418 12.8943 2.29326 13.986 3.63637C14.5213 4.29502 14.9249 5.12333 15.191 6.08909L16.7048 5.68521C16.3823 4.49646 15.8748 3.4721 15.1842 2.62256C13.7846 0.900626 11.7377 0.0182951 9.10027 0H9.08971C6.45765 0.0182316 4.43363 0.903919 3.0739 2.63243C1.86393 4.1706 1.23979 6.31085 1.21882 8.99367L1.21875 9L1.21882 9.00633C1.23979 11.6891 1.86393 13.8294 3.0739 15.3676C4.43363 17.0961 6.45765 17.9818 9.08971 18H9.10027C11.4403 17.9838 13.0897 17.3711 14.4486 16.0135C16.2263 14.2374 16.1728 12.0112 15.5869 10.6445C15.1665 9.66441 14.365 8.86839 13.2691 8.34265ZM9.2288 12.1413C8.25005 12.1964 7.23322 11.7571 7.18309 10.8161C7.14593 10.1184 7.67961 9.33994 9.28886 9.2472C9.47316 9.23657 9.654 9.23137 9.83166 9.23137C10.4162 9.23137 10.963 9.28816 11.4602 9.39684C11.2747 11.7127 10.1871 12.0887 9.2288 12.1413Z" fill="white"/>
</svg>
