<svg width="24" height="24" viewBox="0 0 24 24" fill="none" xmlns="http://www.w3.org/2000/svg">
<path d="M14.999 3H4C2.34315 3 1 4.34315 1 6V18C1 19.6569 2.34315 21 4 21H14.999C16.6559 21 17.999 19.6569 17.999 18V6C17.999 4.34315 16.6559 3 14.999 3Z" stroke="white" stroke-width="2" stroke-linecap="round" stroke-linejoin="round"/>
<path d="M17.999 9.14605L20.494 6.89005C20.7093 6.69537 20.9765 6.56734 21.2631 6.52151C21.5498 6.47567 21.8436 6.51399 22.1088 6.63181C22.3741 6.74964 22.5995 6.94191 22.7577 7.1853C22.9159 7.4287 23.0001 7.71277 23 8.00305V15.997C23.0001 16.2873 22.9159 16.5714 22.7577 16.8148C22.5995 17.0582 22.3741 17.2505 22.1088 17.3683C21.8436 17.4861 21.5498 17.5244 21.2631 17.4786C20.9765 17.4328 20.7093 17.3047 20.494 17.11L18 14.854" stroke="white" stroke-width="2" stroke-linecap="round" stroke-linejoin="round"/>
</svg>
