<svg width="16" height="16" viewBox="0 0 16 16" fill="none" xmlns="http://www.w3.org/2000/svg">
<g clip-path="url(#clip0_334_378)">
<path d="M15.138 14.1954L11.9213 10.9787C12.9435 9.71508 13.4419 8.10744 13.3138 6.48721C13.1856 4.86699 12.4407 3.35768 11.2326 2.27046C10.0245 1.18324 8.44532 0.600986 6.8206 0.643739C5.19587 0.686492 3.64948 1.35099 2.50023 2.50024C1.35098 3.64949 0.686476 5.19589 0.643723 6.82061C0.600971 8.44534 1.18322 10.0245 2.27044 11.2326C3.35766 12.4407 4.86697 13.1856 6.4872 13.3138C8.10743 13.4419 9.71506 12.9435 10.9787 11.9214L14.1953 15.138C14.3211 15.2595 14.4895 15.3267 14.6643 15.3251C14.8391 15.3236 15.0063 15.2535 15.1299 15.1299C15.2535 15.0063 15.3236 14.8391 15.3251 14.6643C15.3266 14.4895 15.2594 14.3211 15.138 14.1954ZM7 12.0007C6.0111 12.0007 5.0444 11.7074 4.22215 11.158C3.39991 10.6086 2.75905 9.82773 2.38061 8.9141C2.00217 8.00047 1.90315 6.99514 2.09608 6.02524C2.289 5.05533 2.76521 4.16442 3.46447 3.46515C4.16373 2.76589 5.05465 2.28969 6.02455 2.09676C6.99446 1.90383 7.99979 2.00285 8.91342 2.38129C9.82705 2.75973 10.6079 3.40059 11.1574 4.22284C11.7068 5.04508 12 6.01178 12 7.00069C11.9984 8.32628 11.4711 9.59713 10.5338 10.5345C9.59645 11.4718 8.3256 11.9991 7 12.0007ZM9.33334 6.33402H7.66667V4.66735C7.66667 4.49054 7.59643 4.32097 7.47141 4.19595C7.34639 4.07092 7.17682 4.00069 7 4.00069C6.82319 4.00069 6.65362 4.07092 6.5286 4.19595C6.40358 4.32097 6.33334 4.49054 6.33334 4.66735V6.33402H4.66667C4.48986 6.33402 4.32029 6.40426 4.19527 6.52928C4.07024 6.65431 4 6.82388 4 7.00069C4 7.1775 4.07024 7.34707 4.19527 7.47209C4.32029 7.59712 4.48986 7.66735 4.66667 7.66735H6.33334V9.33402C6.33334 9.51083 6.40358 9.6804 6.5286 9.80542C6.65362 9.93045 6.82319 10.0007 7 10.0007C7.17682 10.0007 7.34639 9.93045 7.47141 9.80542C7.59643 9.6804 7.66667 9.51083 7.66667 9.33402V7.66735H9.33334C9.51015 7.66735 9.67972 7.59712 9.80474 7.47209C9.92977 7.34707 10 7.1775 10 7.00069C10 6.82388 9.92977 6.65431 9.80474 6.52928C9.67972 6.40426 9.51015 6.33402 9.33334 6.33402Z" fill="white"/>
</g>
<defs>
<clipPath id="clip0_334_378">
<rect width="16" height="16" fill="white"/>
</clipPath>
</defs>
</svg>
